<?xml version="1.0" encoding="UTF-8" ?>
<!DOCTYPE svg PUBLIC "-//W3C//DTD SVG 1.1//EN" "http://www.w3.org/Graphics/SVG/1.1/DTD/svg11.dtd">
<svg width="960pt" height="531pt" viewBox="0 0 960 531" version="1.1" xmlns="http://www.w3.org/2000/svg">
<g id="#00f6d6ff">
<path fill="#00f6d6" opacity="1.00" d=" M 0.00 0.00 L 61.56 0.00 C 61.56 1.11 61.52 2.23 61.67 3.34 C 63.13 11.46 65.18 19.47 66.46 27.62 C 69.38 40.48 75.00 52.50 80.69 64.33 C 85.07 71.48 89.89 78.36 94.99 85.02 C 97.87 88.77 101.46 91.87 104.76 95.24 C 114.72 105.81 126.66 114.25 138.63 122.37 C 150.83 130.36 164.00 136.76 177.46 142.34 C 173.89 148.63 169.68 154.54 165.28 160.27 C 159.26 168.79 151.89 176.22 145.23 184.22 C 133.44 196.11 121.57 207.91 109.74 219.75 C 106.20 222.86 102.52 225.84 99.16 229.16 C 87.58 238.97 75.87 248.64 63.57 257.55 C 47.76 268.42 31.64 278.97 14.34 287.33 C 9.69 289.84 4.66 291.54 0.00 294.03 L 0.00 0.00 Z" />
<path fill="#00f6d6" opacity="1.00" d=" M 225.22 0.00 L 329.98 0.00 C 330.32 7.71 329.52 15.40 329.26 23.10 C 328.89 24.28 330.77 24.50 330.52 25.61 C 330.03 29.38 330.47 33.13 331.32 36.81 C 332.15 45.00 334.24 52.98 335.97 61.01 C 337.75 65.37 338.68 69.98 340.16 74.44 C 341.14 79.39 342.42 84.41 345.07 88.77 C 347.84 87.44 350.17 85.40 352.74 83.76 C 361.05 78.46 369.55 73.42 377.28 67.28 C 381.16 64.14 385.66 61.78 389.16 58.17 C 390.95 56.24 393.19 54.84 395.35 53.36 C 399.51 50.56 402.39 46.27 406.65 43.59 C 410.49 41.10 412.32 36.33 416.72 34.58 C 422.77 26.77 430.87 20.70 436.56 12.56 C 439.94 8.44 443.81 4.69 446.46 0.00 L 774.86 0.00 C 777.04 2.84 779.13 5.80 781.97 8.04 C 786.26 11.55 790.43 15.84 796.15 16.80 C 799.21 17.49 803.14 16.59 804.41 13.40 C 805.84 9.05 804.97 4.37 804.07 0.00 L 960.00 0.00 L 960.00 294.00 C 943.89 300.76 927.35 306.77 910.18 310.19 C 893.71 314.07 876.86 315.95 860.00 317.02 C 851.33 317.02 842.66 317.05 834.00 316.99 C 828.67 316.66 823.37 315.98 818.05 315.72 C 778.63 311.84 739.62 301.62 704.18 283.73 C 700.78 281.92 697.11 280.51 694.08 278.09 C 695.48 274.12 698.07 270.73 699.96 266.99 C 704.45 258.22 709.68 249.85 714.03 241.00 C 717.95 233.91 722.25 227.02 725.67 219.66 C 729.66 212.89 732.99 205.76 736.98 198.99 C 744.82 183.47 752.53 167.87 760.32 152.32 C 762.94 147.10 766.24 142.28 769.30 137.32 C 775.86 127.01 781.88 116.35 788.65 106.17 C 780.43 101.32 773.00 95.30 765.34 89.65 C 751.83 78.67 736.34 70.58 721.68 61.31 C 712.45 55.60 703.73 49.12 694.43 43.53 C 688.89 40.15 683.69 36.27 678.21 32.82 C 677.01 31.94 675.49 31.98 674.09 32.04 C 674.68 35.67 676.51 38.90 677.63 42.37 C 680.85 52.96 683.88 63.63 688.09 73.88 C 690.53 80.13 692.56 86.55 695.38 92.65 C 698.72 99.44 701.55 106.46 704.52 113.42 C 706.09 117.61 708.09 121.76 708.51 126.27 C 708.54 128.17 705.90 127.99 704.64 128.59 C 689.81 131.57 674.75 133.21 659.88 135.92 C 642.01 138.82 623.96 141.24 606.60 146.57 C 604.21 147.51 601.05 148.22 600.13 150.96 C 603.46 159.22 610.00 165.62 616.25 171.75 C 620.23 176.14 625.21 179.43 629.27 183.72 C 635.62 189.82 640.41 197.25 645.99 204.01 C 651.49 210.58 656.50 217.53 661.66 224.37 C 663.60 227.09 665.78 229.76 666.83 232.98 C 662.02 234.25 656.92 233.79 651.99 234.02 C 645.67 233.71 639.42 235.86 633.12 234.85 C 630.73 233.78 629.14 231.51 627.10 229.94 C 621.73 225.65 617.00 220.65 612.62 215.38 C 597.08 199.28 583.67 181.20 571.68 162.34 C 566.73 153.59 561.22 145.15 557.00 136.00 C 552.70 127.75 548.87 119.27 545.25 110.70 C 541.00 99.19 536.35 87.81 532.97 76.00 C 529.30 62.72 525.42 49.45 523.26 35.82 C 521.27 24.30 520.07 12.64 519.75 0.95 C 518.76 1.69 517.90 2.65 518.01 3.97 C 517.81 7.37 518.38 10.75 518.72 14.12 C 521.16 44.34 529.46 73.78 539.93 102.12 C 541.32 105.93 543.07 109.59 544.66 113.33 C 546.77 118.21 548.50 123.27 550.97 128.01 C 555.73 137.20 559.91 146.71 565.55 155.42 C 577.71 176.56 592.46 196.12 608.73 214.26 C 615.72 221.46 623.15 228.24 629.87 235.69 C 612.64 237.06 595.33 240.74 579.98 248.98 C 577.52 250.45 574.47 251.53 572.94 254.09 C 573.14 256.36 575.28 257.75 576.81 259.18 C 584.15 264.95 592.78 268.69 600.96 273.06 C 620.17 285.81 638.71 299.55 658.31 311.71 C 662.67 314.29 667.07 316.95 671.87 318.68 C 674.53 314.57 676.59 310.09 678.74 305.69 C 681.89 298.48 686.53 292.05 689.97 284.98 C 690.81 283.29 691.62 281.53 692.90 280.11 C 702.49 284.37 711.54 289.81 721.33 293.66 C 729.80 296.93 738.19 300.45 746.87 303.14 C 758.41 307.28 770.41 309.93 782.38 312.51 C 796.49 315.06 810.68 317.42 825.02 318.22 C 835.63 319.60 846.34 318.82 857.00 319.04 C 861.68 319.21 866.31 318.52 870.97 318.15 C 882.56 317.57 893.99 315.40 905.39 313.35 C 924.06 309.20 942.55 303.84 960.00 295.91 L 960.00 531.00 L 731.31 531.00 C 703.99 512.49 676.42 494.35 649.00 476.00 C 642.30 472.15 636.28 467.27 629.60 463.39 C 613.19 452.48 596.81 441.52 580.39 430.62 C 572.37 425.77 564.65 420.44 556.93 415.13 C 543.89 406.88 531.35 397.86 518.21 389.77 C 499.74 377.62 481.34 365.17 461.32 355.68 C 450.96 350.55 441.39 343.90 432.66 336.34 C 427.79 332.11 421.52 330.18 416.08 326.87 C 414.89 326.39 413.76 325.19 412.42 325.41 C 410.64 328.74 409.54 332.39 407.64 335.66 C 405.40 339.99 402.47 343.90 400.08 348.13 C 401.13 349.99 403.04 351.09 404.77 352.26 C 419.19 360.90 431.89 372.07 446.31 380.71 C 457.77 388.82 469.95 395.83 481.96 403.07 C 493.13 410.26 504.41 417.25 515.61 424.39 C 531.80 435.28 548.41 445.51 564.62 456.38 C 574.35 462.21 583.46 468.99 593.18 474.84 C 605.57 483.16 618.28 490.98 630.61 499.39 C 636.94 503.80 643.68 507.57 649.99 512.01 C 659.54 518.25 669.40 524.07 678.48 531.00 L 603.33 531.00 C 579.41 516.22 555.93 500.76 532.05 485.92 C 521.88 479.47 511.76 472.94 501.72 466.29 C 482.31 453.13 463.60 438.97 444.21 425.80 C 426.51 414.38 410.22 400.94 392.60 389.40 C 388.22 386.47 384.31 382.89 379.88 380.04 C 377.34 382.19 375.71 385.13 373.80 387.80 C 370.55 392.44 367.26 397.31 366.08 402.94 C 366.51 404.33 367.74 405.26 368.81 406.18 C 382.46 416.29 396.73 425.52 410.43 435.55 C 414.17 438.25 418.30 440.34 422.17 442.86 C 427.85 446.64 434.07 449.48 439.81 453.16 C 447.99 457.68 454.88 464.07 462.21 469.79 C 469.78 476.12 478.36 481.05 486.68 486.30 C 494.32 490.93 501.48 496.29 509.18 500.84 C 517.43 506.22 525.59 511.75 533.80 517.20 C 540.60 521.93 548.03 525.72 554.46 531.00 L 230.81 531.00 C 232.22 520.87 233.92 510.62 232.58 500.38 C 231.66 494.17 231.02 487.87 229.12 481.87 C 227.00 475.02 224.37 468.32 221.00 461.99 C 218.10 456.45 214.17 451.55 210.45 446.56 C 207.16 442.20 203.14 438.47 198.89 435.08 C 187.66 424.61 175.47 415.25 164.10 404.94 C 157.04 399.31 151.00 392.50 145.96 385.03 C 140.87 377.30 137.26 368.34 136.99 359.01 C 137.27 351.24 139.51 343.40 144.09 337.05 C 153.15 324.17 165.78 314.43 178.58 305.53 C 177.82 303.18 175.98 301.42 174.47 299.54 C 164.60 287.74 154.70 275.95 145.05 263.96 C 143.88 262.54 142.74 260.99 141.10 260.09 C 131.77 265.74 123.14 272.71 115.83 280.83 C 111.45 286.12 106.65 291.09 102.79 296.79 C 99.42 301.83 95.85 306.79 93.29 312.31 C 85.45 329.31 81.61 348.25 83.24 366.96 C 84.79 380.99 88.17 394.93 94.31 407.68 C 100.47 419.92 108.45 431.20 117.72 441.27 C 128.89 451.73 142.49 459.05 154.35 468.63 C 161.14 473.57 166.00 480.63 170.23 487.77 C 173.57 493.29 175.13 499.64 176.23 505.93 C 177.97 514.35 175.92 523.04 173.10 531.00 L 0.00 531.00 L 0.00 296.01 C 6.80 293.44 13.14 289.85 19.67 286.68 C 28.92 282.22 37.77 276.98 46.44 271.48 C 52.28 268.09 57.49 263.77 63.21 260.20 C 77.35 250.20 90.75 239.18 103.74 227.74 C 107.62 223.59 112.40 220.43 116.27 216.27 C 124.91 207.57 133.59 198.92 142.27 190.27 C 144.61 187.92 146.51 185.19 148.77 182.79 C 156.47 175.05 163.06 166.34 169.73 157.74 C 173.12 153.06 176.15 148.14 179.45 143.42 C 182.78 143.30 185.57 145.40 188.61 146.39 C 195.85 148.87 203.23 151.00 210.79 152.23 C 223.95 155.64 237.38 158.17 250.94 159.29 C 257.26 160.14 263.66 159.96 269.97 160.94 C 284.31 161.09 298.67 160.97 313.01 161.00 C 318.99 160.29 324.98 159.85 331.00 159.81 C 328.91 157.62 326.55 155.69 324.59 153.39 C 320.34 148.43 318.49 141.85 313.72 137.28 C 307.04 129.01 299.22 121.79 291.73 114.27 C 287.08 109.84 283.20 104.69 279.54 99.44 C 276.31 94.71 272.22 90.62 269.29 85.68 C 266.85 81.58 263.48 78.15 260.71 74.29 C 255.77 66.67 249.75 59.84 244.71 52.29 C 237.67 43.21 231.16 33.76 224.76 24.22 C 223.55 22.40 222.59 20.26 223.09 18.02 C 223.87 12.02 224.53 6.01 225.22 0.00 M 843.35 6.39 C 841.08 7.19 838.75 8.37 837.53 10.55 C 834.01 15.63 834.48 22.29 835.94 28.00 C 838.04 36.61 842.54 44.35 847.19 51.80 C 850.64 56.61 854.38 61.24 858.73 65.28 C 862.31 69.09 866.36 72.71 871.34 74.57 C 874.38 75.53 878.24 76.21 880.82 73.80 C 883.52 70.96 883.23 66.71 882.72 63.13 C 880.77 52.30 874.89 42.82 869.67 33.33 C 867.16 27.79 863.64 22.81 860.15 17.85 C 857.49 14.24 854.82 10.34 850.70 8.28 C 848.44 7.21 845.94 5.41 843.35 6.39 M 735.34 14.41 C 733.09 15.22 730.59 16.27 729.60 18.62 C 726.88 22.95 728.21 28.24 729.26 32.87 C 730.60 39.12 733.87 44.66 736.65 50.34 C 739.03 55.07 742.16 59.37 745.52 63.45 C 748.46 67.49 752.37 70.76 756.66 73.28 C 761.42 75.15 767.41 76.08 771.80 72.80 C 774.95 69.87 776.23 65.21 775.81 61.01 C 774.94 54.25 772.89 47.56 769.20 41.79 C 764.75 35.02 760.36 28.13 754.74 22.25 C 749.50 17.60 742.76 12.59 735.34 14.41 M 826.38 80.38 C 821.08 80.86 816.05 84.65 814.92 89.98 C 812.91 96.42 815.02 103.10 816.63 109.38 C 820.11 120.58 826.44 130.94 835.04 138.94 C 837.72 141.05 840.83 142.84 844.22 143.47 C 847.54 143.37 851.43 142.22 853.01 139.02 C 854.91 134.92 855.36 130.26 854.37 125.86 C 853.51 115.88 849.15 106.75 845.20 97.70 C 842.17 92.05 838.89 86.24 833.61 82.39 C 831.46 81.12 828.93 79.96 826.38 80.38 M 895.31 113.32 C 893.95 113.83 892.55 114.57 892.00 115.98 C 889.25 121.15 889.85 127.25 890.31 132.87 C 892.57 143.82 896.35 154.50 901.69 164.33 C 903.90 168.56 907.17 172.15 910.82 175.18 C 914.34 178.11 919.30 178.79 923.64 177.62 C 926.29 175.85 928.44 173.19 929.08 170.02 C 930.69 164.48 929.76 158.67 928.71 153.12 C 928.05 149.62 926.23 146.50 924.70 143.33 C 919.84 133.42 914.14 123.59 905.71 116.28 C 902.89 113.93 899.00 112.04 895.31 113.32 M 452.33 267.33 C 449.74 269.48 448.39 272.73 446.40 275.40 C 443.20 279.80 440.31 284.57 439.05 289.92 C 440.32 292.23 443.02 293.34 445.02 294.96 C 456.26 303.12 467.95 310.65 479.20 318.79 C 482.76 321.22 486.11 323.95 489.82 326.17 C 501.50 333.49 514.45 338.94 525.00 347.99 C 534.34 355.43 543.43 363.32 553.97 369.06 C 562.97 375.09 572.21 380.77 581.22 386.79 C 593.59 394.28 605.26 402.87 617.55 410.50 C 620.84 412.93 624.27 415.13 627.79 417.20 C 646.20 429.46 664.60 441.72 683.00 453.99 C 699.25 464.30 715.15 475.17 731.21 485.78 C 742.17 492.36 752.43 500.04 763.39 506.61 C 773.41 513.54 784.31 519.03 794.80 525.19 C 797.54 526.65 799.80 529.37 802.89 529.96 C 810.50 526.11 813.78 517.85 817.88 510.90 C 816.93 508.69 814.67 507.51 812.81 506.19 C 808.71 503.66 805.01 500.54 800.82 498.17 C 796.87 495.89 793.46 492.83 789.59 490.45 C 781.06 485.41 773.13 479.44 764.68 474.29 C 753.47 466.79 741.97 459.75 730.79 452.22 C 723.07 447.70 715.92 442.31 708.21 437.80 C 700.01 432.24 691.37 427.39 683.20 421.80 C 677.64 417.96 671.73 414.66 666.18 410.82 C 655.11 404.35 644.54 397.08 633.60 390.41 C 625.62 384.96 617.15 380.29 609.20 374.79 C 595.01 365.69 580.40 357.19 566.79 347.19 C 552.59 337.88 539.46 327.04 525.20 317.81 C 516.60 311.29 507.16 305.99 498.70 299.28 C 490.99 294.04 483.85 288.02 476.01 282.96 C 470.53 278.71 464.44 275.32 459.00 271.00 C 457.09 269.52 455.21 267.91 452.97 266.95 L 452.33 267.33 Z" />
</g>
<g id="#00f3d4ff">
<path fill="#00f3d4" opacity="1.00" d=" M 61.56 0.00 L 225.22 0.00 C 224.53 6.01 223.87 12.02 223.09 18.02 C 222.59 20.26 223.55 22.40 224.76 24.22 C 231.16 33.76 237.67 43.21 244.71 52.29 C 249.75 59.84 255.77 66.67 260.71 74.29 C 263.48 78.15 266.85 81.58 269.29 85.68 C 272.22 90.62 276.31 94.71 279.54 99.44 C 283.20 104.69 287.08 109.84 291.73 114.27 C 299.22 121.79 307.04 129.01 313.72 137.28 C 318.49 141.85 320.34 148.43 324.59 153.39 C 326.55 155.69 328.91 157.62 331.00 159.81 C 324.98 159.85 318.99 160.29 313.01 161.00 C 298.67 160.97 284.31 161.09 269.97 160.94 C 263.66 159.96 257.26 160.14 250.94 159.29 C 237.38 158.17 223.95 155.64 210.79 152.23 C 203.23 151.00 195.85 148.87 188.61 146.39 C 185.57 145.40 182.78 143.30 179.45 143.42 C 178.77 143.08 178.16 142.62 177.46 142.34 C 164.00 136.76 150.83 130.36 138.63 122.37 C 126.66 114.25 114.72 105.81 104.76 95.24 C 101.46 91.87 97.87 88.77 94.99 85.02 C 89.89 78.36 85.07 71.48 80.69 64.33 C 75.00 52.50 69.38 40.48 66.46 27.62 C 65.18 19.47 63.13 11.46 61.67 3.34 C 61.52 2.23 61.56 1.11 61.56 0.00 Z" />
</g>
<g id="#00f4d5ff">
<path fill="#00f4d5" opacity="1.00" d=" M 329.98 0.00 L 446.46 0.00 C 443.81 4.69 439.94 8.44 436.56 12.56 C 430.87 20.70 422.77 26.77 416.72 34.58 C 412.32 36.33 410.49 41.10 406.65 43.59 C 402.39 46.27 399.51 50.56 395.35 53.36 C 393.19 54.84 390.95 56.24 389.16 58.17 C 385.66 61.78 381.16 64.14 377.28 67.28 C 369.55 73.42 361.05 78.46 352.74 83.76 C 350.17 85.40 347.84 87.44 345.07 88.77 C 342.42 84.41 341.14 79.39 340.16 74.44 C 338.68 69.98 337.75 65.37 335.97 61.01 C 334.24 52.98 332.15 45.00 331.32 36.81 C 330.47 33.13 330.03 29.38 330.52 25.61 C 330.77 24.50 328.89 24.28 329.26 23.10 C 329.52 15.40 330.32 7.71 329.98 0.00 Z" />
</g>
<g id="#00e8cbff">
<path fill="#00e8cb" opacity="1.00" d=" M 774.86 0.00 L 804.07 0.00 C 804.97 4.37 805.84 9.05 804.41 13.40 C 803.14 16.59 799.21 17.49 796.15 16.80 C 790.43 15.84 786.26 11.55 781.97 8.04 C 779.13 5.80 777.04 2.84 774.86 0.00 Z" />
<path fill="#00e8cb" opacity="1.00" d=" M 843.35 6.39 C 845.94 5.41 848.44 7.21 850.70 8.28 C 854.82 10.34 857.49 14.24 860.15 17.85 C 863.64 22.81 867.16 27.79 869.67 33.33 C 874.89 42.82 880.77 52.30 882.72 63.13 C 883.23 66.71 883.52 70.96 880.82 73.80 C 878.24 76.21 874.38 75.53 871.34 74.57 C 866.36 72.71 862.31 69.09 858.73 65.28 C 854.38 61.24 850.64 56.61 847.19 51.80 C 842.54 44.35 838.04 36.61 835.94 28.00 C 834.48 22.29 834.01 15.63 837.53 10.55 C 838.75 8.37 841.08 7.19 843.35 6.39 Z" />
<path fill="#00e8cb" opacity="1.00" d=" M 735.34 14.41 C 742.76 12.59 749.50 17.60 754.74 22.25 C 760.36 28.13 764.75 35.02 769.20 41.79 C 772.89 47.56 774.94 54.25 775.81 61.01 C 776.23 65.21 774.95 69.87 771.80 72.80 C 767.41 76.08 761.42 75.15 756.66 73.28 C 752.37 70.76 748.46 67.49 745.52 63.45 C 742.16 59.37 739.03 55.07 736.65 50.34 C 733.87 44.66 730.60 39.12 729.26 32.87 C 728.21 28.24 726.88 22.95 729.60 18.62 C 730.59 16.27 733.09 15.22 735.34 14.41 Z" />
<path fill="#00e8cb" opacity="1.00" d=" M 826.38 80.38 C 828.93 79.96 831.46 81.12 833.61 82.39 C 838.89 86.24 842.17 92.05 845.20 97.70 C 849.15 106.75 853.51 115.88 854.37 125.86 C 855.36 130.26 854.91 134.92 853.01 139.02 C 851.43 142.22 847.54 143.37 844.22 143.47 C 840.83 142.84 837.72 141.05 835.04 138.94 C 826.44 130.94 820.11 120.58 816.63 109.38 C 815.02 103.10 812.91 96.42 814.92 89.98 C 816.05 84.65 821.08 80.86 826.38 80.38 Z" />
<path fill="#00e8cb" opacity="1.00" d=" M 895.31 113.32 C 899.00 112.04 902.89 113.93 905.71 116.28 C 914.14 123.59 919.84 133.42 924.70 143.33 C 926.23 146.50 928.05 149.62 928.71 153.12 C 929.76 158.67 930.69 164.48 929.08 170.02 C 928.44 173.19 926.29 175.85 923.64 177.62 C 919.30 178.79 914.34 178.11 910.82 175.18 C 907.17 172.15 903.90 168.56 901.69 164.33 C 896.35 154.50 892.57 143.82 890.31 132.87 C 889.85 127.25 889.25 121.15 892.00 115.98 C 892.55 114.57 893.95 113.83 895.31 113.32 Z" />
<path fill="#00e8cb" opacity="1.00" d=" M 452.33 267.33 L 452.97 266.95 C 455.21 267.91 457.09 269.52 459.00 271.00 C 464.44 275.32 470.53 278.71 476.01 282.96 C 483.85 288.02 490.99 294.04 498.70 299.28 C 507.16 305.99 516.60 311.29 525.20 317.81 C 539.46 327.04 552.59 337.88 566.79 347.19 C 580.40 357.19 595.01 365.69 609.20 374.79 C 617.15 380.29 625.62 384.96 633.60 390.41 C 644.54 397.08 655.11 404.35 666.18 410.82 C 671.73 414.66 677.64 417.96 683.20 421.80 C 691.37 427.39 700.01 432.24 708.21 437.80 C 715.92 442.31 723.07 447.70 730.79 452.22 C 741.97 459.75 753.47 466.79 764.68 474.29 C 773.13 479.44 781.06 485.41 789.59 490.45 C 793.46 492.83 796.87 495.89 800.82 498.17 C 805.01 500.54 808.71 503.66 812.81 506.19 C 814.67 507.51 816.93 508.69 817.88 510.90 C 813.78 517.85 810.50 526.11 802.89 529.96 C 799.80 529.37 797.54 526.65 794.80 525.19 C 784.31 519.03 773.41 513.54 763.39 506.61 C 752.43 500.04 742.17 492.36 731.21 485.78 C 715.15 475.17 699.25 464.30 683.00 453.99 C 664.60 441.72 646.20 429.46 627.79 417.20 C 624.27 415.13 620.84 412.93 617.55 410.50 C 605.26 402.87 593.59 394.28 581.22 386.79 C 572.21 380.77 562.97 375.09 553.97 369.06 C 543.43 363.32 534.34 355.43 525.00 347.99 C 514.45 338.94 501.50 333.49 489.82 326.17 C 486.11 323.95 482.76 321.22 479.20 318.79 C 467.95 310.65 456.26 303.12 445.02 294.96 C 443.02 293.34 440.32 292.23 439.05 289.92 C 440.31 284.57 443.20 279.80 446.40 275.40 C 448.39 272.73 449.74 269.48 452.33 267.33 Z" />
<path fill="#00e8cb" opacity="1.00" d=" M 412.42 325.41 C 413.76 325.19 414.89 326.39 416.08 326.87 C 421.52 330.18 427.79 332.11 432.66 336.34 C 441.39 343.90 450.96 350.55 461.32 355.68 C 481.34 365.17 499.74 377.62 518.21 389.77 C 531.35 397.86 543.89 406.88 556.93 415.13 C 564.65 420.44 572.37 425.77 580.39 430.62 C 596.81 441.52 613.19 452.48 629.60 463.39 C 636.28 467.27 642.30 472.15 649.00 476.00 C 676.42 494.35 703.99 512.49 731.31 531.00 L 678.48 531.00 C 669.40 524.07 659.54 518.25 649.99 512.01 C 643.68 507.57 636.94 503.80 630.61 499.39 C 618.28 490.98 605.57 483.16 593.18 474.84 C 583.46 468.99 574.35 462.21 564.62 456.38 C 548.41 445.51 531.80 435.28 515.61 424.39 C 504.41 417.25 493.13 410.26 481.96 403.07 C 469.95 395.83 457.77 388.82 446.31 380.71 C 431.89 372.07 419.19 360.90 404.77 352.26 C 403.04 351.09 401.13 349.99 400.08 348.13 C 402.47 343.90 405.40 339.99 407.64 335.66 C 409.54 332.39 410.64 328.74 412.42 325.41 Z" />
<path fill="#00e8cb" opacity="1.00" d=" M 373.80 387.80 C 375.71 385.13 377.34 382.19 379.88 380.04 C 384.31 382.89 388.22 386.47 392.60 389.40 C 410.22 400.94 426.51 414.38 444.21 425.80 C 463.60 438.97 482.31 453.13 501.72 466.29 C 511.76 472.94 521.88 479.47 532.05 485.92 C 555.93 500.76 579.41 516.22 603.33 531.00 L 554.46 531.00 C 548.03 525.72 540.60 521.93 533.80 517.20 C 525.59 511.75 517.43 506.22 509.18 500.84 C 501.48 496.29 494.32 490.93 486.68 486.30 C 478.36 481.05 469.78 476.12 462.21 469.79 C 454.88 464.07 447.99 457.68 439.81 453.16 C 434.07 449.48 427.85 446.64 422.17 442.86 C 418.30 440.34 414.17 438.25 410.43 435.55 C 396.73 425.52 382.46 416.29 368.81 406.18 C 367.74 405.26 366.51 404.33 366.08 402.94 C 367.26 397.31 370.55 392.44 373.80 387.80 Z" />
</g>
<g id="#00ebcdff">
<path fill="#00ebcd" opacity="1.00" d=" M 518.01 3.97 C 517.90 2.65 518.76 1.69 519.75 0.95 C 520.07 12.64 521.27 24.30 523.26 35.82 C 525.42 49.45 529.30 62.72 532.97 76.00 C 536.35 87.81 541.00 99.19 545.25 110.70 C 548.87 119.27 552.70 127.75 557.00 136.00 C 561.22 145.15 566.73 153.59 571.68 162.34 C 583.67 181.20 597.08 199.28 612.62 215.38 C 617.00 220.65 621.73 225.65 627.10 229.94 C 629.14 231.51 630.73 233.78 633.12 234.85 C 639.42 235.86 645.67 233.71 651.99 234.02 C 656.92 233.79 662.02 234.25 666.83 232.98 C 665.78 229.76 663.60 227.09 661.66 224.37 C 656.50 217.53 651.49 210.58 645.99 204.01 C 640.41 197.25 635.62 189.82 629.27 183.72 C 625.21 179.43 620.23 176.14 616.25 171.75 C 610.00 165.62 603.46 159.22 600.13 150.96 C 601.05 148.22 604.21 147.51 606.60 146.57 C 623.96 141.24 642.01 138.82 659.88 135.92 C 674.75 133.21 689.81 131.57 704.64 128.59 C 705.90 127.99 708.54 128.17 708.51 126.27 C 708.09 121.76 706.09 117.61 704.52 113.42 C 701.55 106.46 698.72 99.44 695.38 92.65 C 692.56 86.55 690.53 80.13 688.09 73.88 C 683.88 63.63 680.85 52.96 677.63 42.37 C 676.51 38.90 674.68 35.67 674.09 32.04 C 675.49 31.98 677.01 31.94 678.21 32.82 C 683.69 36.27 688.89 40.15 694.43 43.53 C 703.73 49.12 712.45 55.60 721.68 61.31 C 736.34 70.58 751.83 78.67 765.34 89.65 C 773.00 95.30 780.43 101.32 788.65 106.17 C 781.88 116.35 775.86 127.01 769.30 137.32 C 766.24 142.28 762.94 147.10 760.32 152.32 C 752.53 167.87 744.82 183.47 736.98 198.99 C 732.99 205.76 729.66 212.89 725.67 219.66 C 722.25 227.02 717.95 233.91 714.03 241.00 C 709.68 249.85 704.45 258.22 699.96 266.99 C 698.07 270.73 695.48 274.12 694.08 278.09 C 697.11 280.51 700.78 281.92 704.18 283.73 C 739.62 301.62 778.63 311.84 818.05 315.72 C 823.37 315.98 828.67 316.66 834.00 316.99 C 842.66 317.05 851.33 317.02 860.00 317.02 C 876.86 315.95 893.71 314.07 910.18 310.19 C 927.35 306.77 943.89 300.76 960.00 294.00 L 960.00 295.91 C 942.55 303.84 924.06 309.20 905.39 313.35 C 893.99 315.40 882.56 317.57 870.97 318.15 C 866.31 318.52 861.68 319.21 857.00 319.04 C 846.34 318.82 835.63 319.60 825.02 318.22 C 810.68 317.42 796.49 315.06 782.38 312.51 C 770.41 309.93 758.41 307.28 746.87 303.14 C 738.19 300.45 729.80 296.93 721.33 293.66 C 711.54 289.81 702.49 284.37 692.90 280.11 C 691.62 281.53 690.81 283.29 689.97 284.98 C 686.53 292.05 681.89 298.48 678.74 305.69 C 676.59 310.09 674.53 314.57 671.87 318.68 C 667.07 316.95 662.67 314.29 658.31 311.71 C 638.71 299.55 620.17 285.81 600.96 273.06 C 592.78 268.69 584.15 264.95 576.81 259.18 C 575.28 257.75 573.14 256.36 572.94 254.09 C 574.47 251.53 577.52 250.45 579.98 248.98 C 595.33 240.74 612.64 237.06 629.87 235.69 C 623.15 228.24 615.72 221.46 608.73 214.26 C 592.46 196.12 577.71 176.56 565.55 155.42 C 559.91 146.71 555.73 137.20 550.97 128.01 C 548.50 123.27 546.77 118.21 544.66 113.33 C 543.07 109.59 541.32 105.93 539.93 102.12 C 529.46 73.78 521.16 44.34 518.72 14.12 C 518.38 10.75 517.81 7.37 518.01 3.97 Z" />
<path fill="#00ebcd" opacity="1.00" d=" M 115.83 280.83 C 123.14 272.71 131.77 265.74 141.10 260.09 C 142.74 260.99 143.88 262.54 145.05 263.96 C 154.70 275.95 164.60 287.74 174.47 299.54 C 175.98 301.42 177.82 303.18 178.58 305.53 C 165.78 314.43 153.15 324.17 144.09 337.05 C 139.51 343.40 137.27 351.24 136.99 359.01 C 137.26 368.34 140.87 377.30 145.96 385.03 C 151.00 392.50 157.04 399.31 164.10 404.94 C 175.47 415.25 187.66 424.61 198.89 435.08 C 203.14 438.47 207.16 442.20 210.45 446.56 C 214.17 451.55 218.10 456.45 221.00 461.99 C 224.37 468.32 227.00 475.02 229.12 481.87 C 231.02 487.87 231.66 494.17 232.58 500.38 C 233.92 510.62 232.22 520.87 230.81 531.00 L 173.10 531.00 C 175.92 523.04 177.97 514.35 176.23 505.93 C 175.13 499.64 173.57 493.29 170.23 487.77 C 166.00 480.63 161.14 473.57 154.35 468.63 C 142.49 459.05 128.89 451.73 117.72 441.27 C 108.45 431.20 100.47 419.92 94.31 407.68 C 88.17 394.93 84.79 380.99 83.24 366.96 C 81.61 348.25 85.45 329.31 93.29 312.31 C 95.85 306.79 99.42 301.83 102.79 296.79 C 106.65 291.09 111.45 286.12 115.83 280.83 Z" />
</g>
<g id="#00edcfff">
<path fill="#00edcf" opacity="1.00" d=" M 177.46 142.34 C 178.16 142.62 178.77 143.08 179.45 143.42 C 176.15 148.14 173.12 153.06 169.73 157.74 C 163.06 166.34 156.47 175.05 148.77 182.79 C 146.51 185.19 144.61 187.92 142.27 190.27 C 133.59 198.92 124.91 207.57 116.27 216.27 C 112.40 220.43 107.62 223.59 103.74 227.74 C 90.75 239.18 77.35 250.20 63.21 260.20 C 57.49 263.77 52.28 268.09 46.44 271.48 C 37.77 276.98 28.92 282.22 19.67 286.68 C 13.14 289.85 6.80 293.44 0.00 296.01 L 0.00 294.03 C 4.66 291.54 9.69 289.84 14.34 287.33 C 31.64 278.97 47.76 268.42 63.57 257.55 C 75.87 248.64 87.58 238.97 99.16 229.16 C 102.52 225.84 106.20 222.86 109.74 219.75 C 121.57 207.91 133.44 196.11 145.23 184.22 C 151.89 176.22 159.26 168.79 165.28 160.27 C 169.68 154.54 173.89 148.63 177.46 142.34 Z" />
</g>
</svg>
