<?xml version="1.0" encoding="utf-8"?>
<!-- Generator: Adobe Illustrator 22.1.0, SVG Export Plug-In . SVG Version: 6.00 Build 0)  -->
<svg version="1.1" id="Calque_1" xmlns="http://www.w3.org/2000/svg" xmlns:xlink="http://www.w3.org/1999/xlink" x="0px" y="0px"
	 viewBox="0 0 1500 1500" style="enable-background:new 0 0 1500 1500;" xml:space="preserve">
<style type="text/css">
	.st0{fill:none;stroke:#00F6D6;stroke-miterlimit:10;}
	.st1{clip-path:url(#SVGID_2_);}
	.st2{clip-path:url(#SVGID_6_);}
	.st3{fill:#00F6D6;}
</style>
<path class="st0" d="M57,808c78-26,312-136,327-417"/>
<g>
	<defs>
		<path id="SVGID_1_" d="M557.5,940.6c5.7,3.9,12.4,7,18,10.8c21,14.3,43.9,26.2,65.4,40.5c31.5,21,65,39,96,60.6
			c29.8,20.8,265,184,296.8,201.8c8.8-12.9,13.1-13.9,16.2-29.1c-13.5-7.7-26.2-19.3-39-28.4c-26.1-18.5-260.5-173.2-286.6-192.2
			c-14.7-10.7-31.5-16.8-46-27c-13.6-9.7-27-21.5-41.5-30c-16.5-9.7-37.9-24.8-57.5-35.6C573.1,917.3,569.9,919.6,557.5,940.6z
			 M606.7,863.7c8.3,6.2,15.4,14.2,24.7,18.8c14.8,7.4,27.7,16.1,40.2,27.2c21.3,18.8,46.7,34.5,70.4,50.6
			c29.4,19.9,266.7,177.6,296.9,196.4c7.1,4.4,28.8,22.6,38.7,23.4c0.7,0.1,1.4,0,1.9-0.1c2.9-0.7,21.7-24.9,22.8-24.1
			C1075,1137.3,831.1,972.4,803.6,954c-29-19.5-57.3-38.6-85.3-59.3c-13-9.6-26.8-18.2-40.1-27.2c-12.6-8.5-26.8-15.2-38.8-24.5
			c-1.4-1.1-6.9-4-11-6.8c-2.7,4.7-5.8,9.1-9.3,13.4C615.4,854.1,610.8,858.8,606.7,863.7z M657.9,796.9c5.7,3.9,12.4,7,18,10.8
			c21,14.3,43.9,26.2,65.4,40.5c31.5,21,65,39,96,60.6c29.8,20.8,265,184,296.8,201.8c8.8-12.9,13.1-13.9,16.2-29.1
			c-13.5-7.7-26.2-19.3-39-28.4c-26.1-18.5-260.5-173.2-286.6-192.2c-14.7-10.7-31.5-16.8-46-27c-13.6-9.7-27-21.5-41.5-30
			c-16.5-9.7-37.9-24.8-57.5-35.6C673.5,773.6,670.4,775.9,657.9,796.9z"/>
	</defs>
	<use xlink:href="#SVGID_1_"  style="overflow:visible;fill-rule:evenodd;clip-rule:evenodd;fill:#00F6D6;"/>
	<clipPath id="SVGID_2_">
		<use xlink:href="#SVGID_1_"  style="overflow:visible;"/>
	</clipPath>
	<g class="st1">
		<defs>

				<rect id="SVGID_3_" x="-12436.3" y="-2051.4" transform="matrix(0.9465 -0.3227 0.3227 0.9465 -169.6037 -360.1972)" width="22530.4" height="4765.7"/>
		</defs>
		<use xlink:href="#SVGID_3_"  style="overflow:visible;fill:#00F6D6;"/>
		<clipPath id="SVGID_4_">
			<use xlink:href="#SVGID_3_"  style="overflow:visible;"/>
		</clipPath>
	</g>
</g>
<path class="st0" d="M707.7,634.4c-57.4-30-121.1-30.9-177.4-11.4c-95.1,33-168.9,124.2-154.5,231.8
	c17.6,131.9,133,246.8,270.8,226.5C881.3,1046.7,905.7,737.8,707.7,634.4 M586.7,975.7c-55.8-7.5-104.6-46.6-124-114.4
	c-21.1-73.5,6.7-138.2,81.5-160.7c64.4-19.3,134,2.9,170.9,60.5c32.9,51.4,52.9,137.2-4,179.5C671.6,969.8,627.3,981.2,586.7,975.7"
	/>
<g>
	<defs>
		<path id="SVGID_5_" d="M983.7,496.4c0.4,1.3,0.9,2.6,1.3,3.8c3.8,10.8,8.5,21.2,12.8,31.8c1.7,4.2,23.3,45.3,18.8,47.3
			c-9.8,4.3-154.2,14.8-148.1,26.2c10.8,20.2,36.9,34.9,51.7,53.3c12.4,15.4,27.7,31.4,38.2,47.6c-43.2,1.3-92.5,0-130.1,22.2
			c4.4,10.7,27.4,17.7,38.1,24.2c27,16.4,52.4,34.3,80.2,49.9c4.9,2.8,10.7,5.1,16.3,7.6c2.8-4.4,5.6-9,8-13.2
			c3.1-5.3,5.7-9.8,6.8-11.4c12.1-18.1,23.6-36.5,35.5-54.7c23.5-36.2,46.9-72.4,67.8-109.9c7.5-13.4,16.9-25.7,26.2-38.2
			c6.7-9,12.6-18.7,20.2-27.2c-0.4-0.2-0.8-0.4-1.2-0.6c-13.2-7.7-25.5-17.1-38.1-25.7c-20.4-13.9-43.1-24.4-63.9-37.8
			c-11.3-7.3-22.8-13.8-34.4-20.6c-5.6-3.2-12-9.3-18.9-9.4C976.5,472.4,979.9,484.9,983.7,496.4"/>
	</defs>
	<use xlink:href="#SVGID_5_"  style="overflow:visible;fill-rule:evenodd;clip-rule:evenodd;fill:#00F6D6;"/>
	<clipPath id="SVGID_6_">
		<use xlink:href="#SVGID_5_"  style="overflow:visible;"/>
	</clipPath>
	<g class="st2">
		<defs>

				<rect id="SVGID_7_" x="-564.2" y="-13750.2" transform="matrix(0.9665 -0.2567 0.2567 0.9665 336.0531 511.2469)" width="5380.6" height="25437.4"/>
		</defs>
		<use xlink:href="#SVGID_7_"  style="overflow:visible;fill:#00F6D6;"/>
		<clipPath id="SVGID_8_">
			<use xlink:href="#SVGID_7_"  style="overflow:visible;"/>
		</clipPath>
	</g>
</g>
<g>
	<g>
		<g>
			<defs>
				<path id="SVGID_9_" d="M353.6,990.9c-17.5-15.7-35.7-29.9-53.1-45.6c-28.8-25.8-48.1-60.9-20.8-94.5
					c12.9-16,28.2-27.5,44.5-38.3c-1.9-2.4-3.6-4.7-5-6.2c-7.3-8.5-40-48.2-46.3-55.5c-30.5,16.4-57.4,53.8-64,66.4
					c-20.1,38.4-21,81.8-6.6,121.1c7,19,19.3,37.9,32.6,53.3c14,16.2,35.8,27.8,52.7,40.9c27.8,21.4,41.9,58.5,25.1,90.7
					c-7.2,13.8-39.5,41.8-44.1,46.3c15.1,19.9,30.1,40,44.7,60.4c1.4-0.7,45.8-45.4,56.1-59C411,1116.1,405.1,1037.4,353.6,990.9"/>
			</defs>
			<use xlink:href="#SVGID_9_"  style="overflow:visible;fill-rule:evenodd;clip-rule:evenodd;fill:#00F6D6;"/>
			<clipPath id="SVGID_10_">
				<use xlink:href="#SVGID_9_"  style="overflow:visible;"/>
			</clipPath>
		</g>
	</g>
</g>
<path class="st3" d="M514.6,411.6C519,461,531,516,537,532c62-30,131-106,140-126C606,410,514.6,411.6,514.6,411.6z"/>
<path class="st3" d="M1078.6,447.7c-8-8.3-25.1-19.1-33.6-2.5c-10.2,20.1,10.3,45.3,19.7,56.9c1.5,1.9,4.1,4.4,7.2,6.8
	c7.5,5.8,18,10.8,23.8,3.5C1107.5,497.7,1086.4,455.7,1078.6,447.7z"/>
<path class="st3" d="M1216.6,435.7c-8-8.3-25.1-19.1-33.6-2.5c-10.2,20.1,10.3,45.3,19.7,56.9c1.5,1.9,4.1,4.4,7.2,6.8
	c7.5,5.8,18,10.8,23.8,3.5C1245.5,485.7,1224.4,443.7,1216.6,435.7z"/>
<path class="st3" d="M1186.6,526.7c-8-8.3-25.1-19.1-33.6-2.5c-10.2,20.1,10.3,45.3,19.7,56.9c1.5,1.9,4.1,4.4,7.2,6.8
	c7.5,5.8,18,10.8,23.8,3.5C1215.5,576.7,1194.4,534.7,1186.6,526.7z"/>
<path class="st3" d="M1265.9,633.9c8.1,8.3,25.2,18.9,33.6,2.3c10.1-20.1-10.6-45.2-20-56.8c-1.5-1.9-4.1-4.4-7.2-6.8
	c-7.5-5.8-18.1-10.7-23.8-3.4C1236.8,584.1,1258.1,625.9,1265.9,633.9z"/>
<path class="st3" d="M1106.9,426.9c8.1,8.3,25.2,18.9,33.6,2.3c10.1-20.1-10.6-45.2-20-56.8c-1.5-1.9-4.1-4.4-7.2-6.8
	c-7.5-5.8-18.1-10.7-23.8-3.4C1077.8,377.1,1099.1,418.9,1106.9,426.9z"/>
<path class="st0" d="M759.5,372.5c3,129,111,559,591,431"/>
<path class="st0" d="M804,1130c113-51,131-79,164-217s207-162,252-138s162,45,36,363"/>
<g>
	<g>
		<g>
			<defs>
				<path id="SVGID_11_" d="M496.1,594.1c-14-17.4-32.7-31.7-45.6-49.8c-25-34.9-52.4-69-76.1-104.7
					C330,372.8,281.1,307.2,229.2,247c-21.1,18.5-35.6,55-45.9,78.5c-17.3,39.4-16.8,75.3-7.7,116.4c13.7,61.4,43.1,99.9,93.9,133.4
					c77.2,50.8,161.3,53.2,248.5,45.2C507.1,616.3,503.4,603.2,496.1,594.1"/>
			</defs>
			<use xlink:href="#SVGID_11_"  style="overflow:visible;fill:#00F6D6;"/>
			<clipPath id="SVGID_12_">
				<use xlink:href="#SVGID_11_"  style="overflow:visible;"/>
			</clipPath>
		</g>
	</g>
</g>
</svg>
