<svg width="918" height="926" xmlns="http://www.w3.org/2000/svg" xmlns:svg="http://www.w3.org/2000/svg" xmlns:se="http://svg-edit.googlecode.com" data-name="Calque 1">
 <defs>
  <style>.a8c93ae5-6137-4c2a-9fdc-d711bc88b629,.babfe52a-828d-47b4-86d8-0a161bb33c00{fill:none;}.bb898502-629d-4dda-af6f-b545379651c4{clip-path:url(#ead22bb4-08b1-436b-83dd-a964614b8c46);}.babfe52a-828d-47b4-86d8-0a161bb33c00{stroke:#b3e0e1;stroke-miterlimit:10;stroke-width:2px;}.bf9e0606-6c48-446b-a11b-08d2e01f02df{fill:#c6e7e8;}.b374f2fb-8512-4264-b36e-351d4ba789d9{fill:#bbe3e4;}.b1527238-d8f7-4780-bf2e-ec673fda1b49{fill:#b3e0e1;}.aa21d558-988a-47eb-8bed-416bce63ef9b{fill:#89d0cf;}.e5c941b2-b126-466b-a2c5-edc19c760832{fill:#7fcdca;}.b92d48e0-677a-4a32-92fb-666c132c56e4{clip-path:url(#b6ab36bc-7709-4beb-8904-e943440916de);}.af1a17de-6977-4696-a72d-82edfa4318c5{clip-path:url(#ab6f8e8c-7029-49c1-9633-ca86d06e09e5);}.b1f13ac7-ec62-43e2-91d3-d1178214a5e7{clip-path:url(#f0111d46-a01d-4141-9a81-75b903ded8c8);}</style>
  <clipPath id="ead22bb4-08b1-436b-83dd-a964614b8c46">
   <rect id="svg_1" height="1000" width="1000" y="-278.72" x="-90.82" class="a8c93ae5-6137-4c2a-9fdc-d711bc88b629"/>
  </clipPath>
  <clipPath id="b6ab36bc-7709-4beb-8904-e943440916de">
   <rect id="svg_2" height="600" width="269" y="-278.72" x="-90.82" class="a8c93ae5-6137-4c2a-9fdc-d711bc88b629"/>
  </clipPath>
  <clipPath id="ab6f8e8c-7029-49c1-9633-ca86d06e09e5">
   <rect id="svg_3" transform="translate(1256.35 1128.57) rotate(180)" height="314" width="562" y="407.28" x="347.18" class="a8c93ae5-6137-4c2a-9fdc-d711bc88b629"/>
  </clipPath>
  <clipPath id="f0111d46-a01d-4141-9a81-75b903ded8c8">
   <rect id="svg_4" height="314" width="314" y="407.28" x="-90.82" class="a8c93ae5-6137-4c2a-9fdc-d711bc88b629"/>
  </clipPath>
 </defs>
 <title>fond</title>
 <g class="layer">
  <title>Layer 1</title>
  <path fill="black" id="svg_7" d="m843.18599,462.28796a118.64,118.64 0 0 0 -66.38,-3.13c-58.91,14 -107.13,55.48 -133.29,109.53c-16.45,34 -18.49,71.67 -33.87,105.37c-17.37,38.05 -57.73,56.48 -94.57,70.71c-43.39,16.76 -123.89,49.85 -111.38,110.5c6.87,33.32 39.78,47.66 70.76,54.38c57.38,12.45 120.47,16.56 179.15,16.77c53.11,0.23 106.87,-11.13 146.44,-48.86c45.6,-43.49 66.46,-105.39 86.92,-163.41c19.89,-56.39 46.86,-137.71 19.23,-195.69a108.76,108.76 0 0 0 -63.01,-56.17z" class="bf9e0606-6c48-446b-a11b-08d2e01f02df"/>
  <path id="svg_8" d="m482.74549,379.52895c-51.3,-45.13 -115.39,-52.66 -173.38,-35.79c-75.1,21.83 -134.42,96.78 -139.3,175.55c-3.29,53 23.62,103.3 60.57,139.11c48.43,46.95 116.75,58.66 180.6,43.56c73.58,-17.39 108.67,-62.26 123.18,-134c12.66,-62.63 -1.82,-144.56 -51.67,-188.43zm-24.64,217.45c-39.11,43.13 -100.45,63.37 -156.2,40.22c-7.41,-3.08 -15.35,-6.22 -22.16,-10.42c-15.55,-9.6 -27.16,-23.2 -37.83,-37.66c-18.39,-24.94 -18.77,-61.91 -14.29,-91.2c4.67,-30.52 15.77,-58 40.2,-78.18c39.93,-33 103.31,-40.79 149.44,-16.54c65.88,34.63 93.46,135.74 40.84,193.78z" class="bf9e0606-6c48-446b-a11b-08d2e01f02df"/>
  <path id="svg_9" d="m439.08549,3.08895c-69.17,13.81 -109.87,53.15 -139.15,104.8c-30.88,54.49 -22.4,112.61 -3.66,167.16c115.19,-69.14 171.3,-166.49 142.81,-271.96z" class="b374f2fb-8512-4264-b36e-351d4ba789d9"/>
  <path id="svg_10" d="m387.15549,55.60895c-27.3,-22.88 -69.35,-21.36 -100.65,9.79c-26.8,26.67 -23.62,73.51 -6,104c40.68,70.38 144.32,3 132.82,-65.31c-3.57,-21.25 -13.21,-37.61 -26.17,-48.48z" class="b1527238-d8f7-4780-bf2e-ec673fda1b49"/>
  <path id="svg_11" d="m295.27549,118.39895c0.72,27.82 30.21,43.15 55.82,38.42c26.14,-4.83 40.42,-44 22.3,-63.92c-7.21,-7.9 -23.82,-14.95 -34.54,-15a47.5,47.5 0 0 0 -12.32,2.13a51.4,51.4 0 0 0 -18.61,9.71c-9.17,7.58 -12.97,18.05 -12.65,28.66z" class="aa21d558-988a-47eb-8bed-416bce63ef9b"/>
  <path id="svg_12" d="m294.08549,775.87895c-14.51,-7.55 -30.62,-7.78 -44.84,-2.87c-24.05,8.3 -42.69,31.3 -39.05,58.4c4.46,33.22 33.61,62.16 68.46,57c59.31,-8.67 65.47,-86.48 15.43,-112.53zm-30.6,86c-14.11,-1.89 -26.44,-11.75 -31.36,-28.81c-5.34,-18.51 1.69,-34.82 20.61,-40.49c16.29,-4.87 33.88,0.75 43.2,15.23c8.33,13 13.37,34.56 -1,45.2c-9.98,7.36 -21.19,10.22 -31.45,8.85l0,0.02z" class="aa21d558-988a-47eb-8bed-416bce63ef9b"/>
  <path id="svg_13" d="m648.54549,244.82895c0.35,1.1 0.71,2.2 1.07,3.28c3.07,9.2 6.78,18 10.2,27.1c1.35,3.53 18.46,38.53 15.03,40.28c-7.4,3.84 -117.36,15.32 -112.54,25c8.53,17.19 28.64,29.34 40.22,44.88c9.69,13 21.59,26.5 29.84,40.2c-32.94,1.83 -70.54,1.53 -98.91,21.24c3.49,9.09 21.14,14.72 29.43,20.14c20.87,13.63 40.49,28.55 61.91,41.52c3.78,2.3 8.25,4.2 12.58,6.29c2,-3.78 4.1,-7.86 5.9,-11.47c2.31,-4.62 4.18,-8.47 5,-9.93c8.92,-15.74 17.48,-31.71 26.23,-47.55c17.37,-31.46 34.71,-63 50.07,-95.47c5.49,-11.62 12.51,-22.39 19.38,-33.22c5,-7.83 9.34,-16.3 15,-23.67l-0.89,-0.53c-10.17,-6.42 -19.69,-14.18 -29.46,-21.4c-15.77,-11.55 -33.23,-20.22 -49.33,-31.41c-8.69,-6 -17.56,-11.49 -26.53,-17.09c-4.29,-2.67 -9.31,-7.78 -14.58,-7.76c4.52,9.03 7.27,19.7 10.38,29.57z" class="aa21d558-988a-47eb-8bed-416bce63ef9b"/>
  <path id="svg_14" d="m649.94549,39.73895a75.35,75.35 0 0 0 7.06,16.92c6.63,11.2 18.5,31.63 31.83,36c22.16,7.29 12.1,-13 7.31,-25.13c-5.44,-13.82 -15.13,-40.34 -31.53,-45.1c-16.74,-4.83 -17.67,6.13 -14.67,17.31z" class="e5c941b2-b126-466b-a2c5-edc19c760832"/>
  <path id="svg_15" d="m719.17549,36.29895c3.35,17.33 20.13,42.16 30.79,45.28c23.65,6.93 20.46,-18.69 12.33,-32.06c-5.76,-9.47 -18,-28.57 -30.3,-30c-11.99,-1.37 -14.84,6.35 -12.82,16.78z" class="e5c941b2-b126-466b-a2c5-edc19c760832"/>
  <path id="svg_16" d="m696.17549,214.29895c3.35,17.33 20.1,42.16 30.79,45.28c23.65,6.93 20.46,-18.69 12.31,-32.06c-5.76,-9.47 -18,-28.57 -30.3,-30c-11.97,-1.37 -14.82,6.35 -12.8,16.78z" class="e5c941b2-b126-466b-a2c5-edc19c760832"/>
  <path id="svg_17" d="m644.84549,115.97895a25.66,25.66 0 0 0 1,3.49c3.36,9 9,17.21 15.08,24.79c4.5,5.61 12.67,18.25 20.54,18.35c23.15,0.29 -5.94,-57.71 -13.15,-64.12c-15.04,-13.38 -27.04,1.71 -23.47,17.49z" class="e5c941b2-b126-466b-a2c5-edc19c760832"/>
  <path id="svg_18" d="m726.72549,150.41895c4.93,20.42 26.39,47.23 39.44,49.68c16.43,3.07 8.53,-20.09 4.16,-28.23c-4.84,-9 -27.49,-60.31 -42.2,-38.42c-2.85,4.23 -3.02,10.29 -1.4,16.97z" class="e5c941b2-b126-466b-a2c5-edc19c760832"/>
  <path fill="black" id="svg_19" d="m807.72549,211.41895c4.93,20.42 26.39,47.23 39.44,49.68c16.43,3.07 8.53,-20.09 4.16,-28.23c-4.84,-9 -27.49,-60.31 -42.2,-38.42c-2.85,4.23 -3.02,10.29 -1.4,16.97z" class="e5c941b2-b126-466b-a2c5-edc19c760832"/>
  <path id="svg_20" d="m793.51549,112.91895a49,49 0 0 0 1.66,8.52c3.85,12.29 12.12,39.09 28,40.06c13.17,0.79 12.55,-17 10.28,-26.82c-2.2,-9.48 -20.57,-44.05 -33.77,-41.55c-6.41,1.24 -7.11,11.48 -6.17,19.79z" class="e5c941b2-b126-466b-a2c5-edc19c760832"/>
  <path id="svg_21" d="m572.51549,19.91895a49,49 0 0 0 1.66,8.52c3.85,12.29 12.12,39.09 28,40.06c13.17,0.79 12.55,-17 10.28,-26.82c-2.2,-9.48 -20.57,-44.05 -33.77,-41.55c-6.41,1.24 -7.11,11.48 -6.17,19.79z" class="e5c941b2-b126-466b-a2c5-edc19c760832"/>
  <path fill="black" id="svg_22" d="m864.51549,319.91895a49,49 0 0 0 1.66,8.52c3.85,12.29 12.12,39.09 28,40.06c13.17,0.79 12.55,-17 10.28,-26.82c-2.2,-9.48 -20.57,-44 -33.77,-41.55c-6.41,1.24 -7.11,11.48 -6.17,19.79z" class="e5c941b2-b126-466b-a2c5-edc19c760832"/>
  <path id="svg_23" d="m580.63549,125.43895c4.67,19.52 21.19,42.34 33,39.57c13.06,-3 6.8,-25.4 3.93,-33.37c-3.16,-8.76 -12.82,-33.79 -25.49,-32.3c-12.4,1.47 -14.57,13.05 -11.44,26.1z" class="e5c941b2-b126-466b-a2c5-edc19c760832"/>
  <path id="svg_24" d="m786.63549,292.43895c4.67,19.52 21.19,42.34 33,39.57c13.06,-3 6.8,-25.4 3.93,-33.37c-3.16,-8.76 -12.82,-33.79 -25.49,-32.3c-12.4,1.47 -14.57,13.05 -11.44,26.1z" class="e5c941b2-b126-466b-a2c5-edc19c760832"/>
  <path id="svg_31" d="m789.57549,714.19895c-23,-18 -217.32,-140.92 -242,-156.46c-25.72,-16.2 -49.49,-35.31 -74.84,-52.07c-17.28,-11.43 -33.18,-24.64 -50.37,-35.72c-4.55,-2.93 -9,-6.93 -13.61,-9.93c-11.67,15.74 -12.39,18.77 -14.44,25.07c14.14,11 32,22.21 44.32,31.35c10.8,8 23.74,14.22 35.17,21.28c12.08,7.46 21.84,18 34.34,25.54c22.24,13.38 209.92,138.4 231.73,151.92c10.74,6.67 23.25,12.44 33.2,20c10.32,-7.01 9.66,-10.44 16.5,-20.98z" class="e5c941b2-b126-466b-a2c5-edc19c760832"/>
  <path id="svg_32" d="m713.27549,832.35895c-23,-18 -217.32,-140.92 -242,-156.46c-25.72,-16.2 -49.49,-35.3 -74.84,-52.07c-17.28,-11.43 -33.18,-24.64 -50.37,-35.71c-4.55,-2.94 -9,-6.94 -13.61,-9.93c-11.67,15.73 -12.39,18.77 -14.44,25.06c14.14,11 32,22.21 44.32,31.35c10.8,8 23.74,14.23 35.17,21.28c12.08,7.46 21.84,18 34.34,25.54c22.24,13.38 209.92,138.4 231.73,151.93c10.74,6.66 23.25,12.43 33.2,20c10.33,-7.02 9.68,-10.46 16.5,-20.99z" class="e5c941b2-b126-466b-a2c5-edc19c760832"/>
  <path fill="black" id="svg_33" d="m748.27549,771.64895a4.87,4.87 0 0 0 -0.51,-1.47c-3.66,-7.06 -23.93,-17.42 -29.37,-21.27c-23.28,-16.48 -213.89,-142.49 -237.82,-158c-19.3,-12.46 -38.8,-26.3 -59.38,-36.17a145.7,145.7 0 0 1 -32.62,-21.21c-6.29,-5.41 -14.45,-8.21 -21.59,-12.39c-2.3,4.6 -4.37,9.41 -6.59,13.55a88.91,88.91 0 0 1 -7,11c3.33,2.22 7.2,5.33 8.46,6c10.61,6 20,14.31 30.23,21c10.78,7.05 21.42,14.53 32.61,21.14c24.11,14.24 47,29.13 70.48,44.51c22.21,14.56 220.24,143.26 242.33,157.62c-0.92,-0.61 11.14,-21.94 10.77,-24.31z" class="e5c941b2-b126-466b-a2c5-edc19c760832"/>
  <path fill="black" id="svg_34" d="m265.85549,327.73895c-11.18,-14 -26.32,-25.62 -36.62,-40.1c-19.89,-27.9 -41.84,-55.3 -60.64,-83.9c-35.22,-53.46 -74.17,-106.07 -115.77,-154.55c-17.83,14.08 -30.72,42.55 -39.77,60.72c-15.18,30.58 -15.59,58.89 -9,91.38c9.97,48.57 33.46,79.45 74.78,106.88c62.72,41.6 132.29,45.23 204.62,40.85c-9,-3.53 -11.73,-13.92 -17.6,-21.28z" class="b1527238-d8f7-4780-bf2e-ec673fda1b49"/>
  <path fill="black" id="svg_35" d="m146.66549,637.52895c-13.34,-12.05 -27.29,-22.91 -40.59,-34.88c-22,-19.78 -36.77,-46.61 -16.07,-72.52c9.83,-12.31 21.43,-21.15 33.86,-29.45c-1.48,-1.81 -2.79,-3.58 -3.8,-4.76c-5.58,-6.51 -30.61,-36.9 -35.37,-42.53c-23.24,12.63 -43.62,41.35 -48.63,51.08c-15.26,29.48 -15.88,62.78 -4.79,92.93c5.34,14.56 14.79,29.07 25,40.87c10.69,12.38 27.33,21.29 40.26,31.26c21.21,16.37 32,44.82 19.33,69.59c-5.48,10.62 -30.04,32.14 -33.59,35.62c11.55,15.27 23,30.65 34.16,46.24c1,-0.51 34.85,-35 42.67,-45.4c31.57,-42.06 26.95,-102.46 -12.44,-138.05z" class="aa21d558-988a-47eb-8bed-416bce63ef9b"/>
 </g>
</svg>