<svg xmlns="http://www.w3.org/2000/svg" viewBox="0 0 1920 530"><defs><style>.cls-1{fill:#00f6d6;}.cls-1,.cls-5,.cls-6{fill-rule:evenodd;}.cls-2,.cls-6{fill:#6df8eb;}.cls-3{fill:#c5fbf6;}.cls-4,.cls-5{fill:#54f7e9;}</style></defs><title>comment ça marche</title><g id="comment_ça_marche" data-name="comment ça marche"><path class="cls-1" d="M0,0V418.32C276.17,487.06,605.88,527,960,527s683.83-39.94,960-108.68V0Z"/><path class="cls-2" d="M1232.5,355.54c28.53,14.85,60.21,15.3,88.18,5.64,47.29-16.32,84-61.54,76.79-114.84-8.77-65.33-66.11-122.24-134.64-112.18C1146.2,151.28,1134.09,304.31,1232.5,355.54Zm60.17-169.08c27.74,3.71,52,23.1,61.67,56.66,10.49,36.4-3.32,68.48-40.54,79.61-32,9.58-66.61-1.46-84.94-29.94-16.38-25.46-26.31-68,2-88.89C1250.44,189.38,1272.48,183.77,1292.67,186.46Z"/><path class="cls-2" d="M1574,415.51c10-18.37,53.94-55.12,60.28-61.13-19.63-27.25-39.1-54.71-58-82.5-1.87.85-62.56,59.86-76.71,77.85A183.15,183.15,0,0,0,1464.2,499q52.75-6,104.09-13.24C1560.9,463.06,1561.71,438.25,1574,415.51Z"/><path class="cls-3" d="M927.74,526.89q16.1.11,32.26.11c103.47,0,204.85-3.42,303.43-10-81.77-44.77-174.07-48.6-259.22-23.84A325.14,325.14,0,0,0,927.74,526.89Z"/><path class="cls-2" d="M1919.68,294.44c-13.86-4.65-27.72-9.82-41.19-15.35-136.36-56-251.14-155-323.18-278.59l1.72-1c71.83,123.23,186.26,221.87,322.22,277.74,13.43,5.52,27.25,10.67,41.07,15.31Z"/><path class="cls-3" d="M816.26,397.57c82.92-30.89,236.82-92,214.4-207.68-12.32-63.55-74.61-91.57-133.39-105.06-108.87-25-228.79-34.23-340.41-36-101-1.64-203.57,18.74-279.69,89.62-86.72,80.75-127.86,196.25-167.66,305,163.41,34.5,342.68,59.36,532.58,72.6C678.9,453.44,750.55,422.06,816.26,397.57Z"/><path class="cls-4" d="M384.93,314.92c1.69,1.09-21.18,41.55-20.43,46a9.52,9.52,0,0,0,1,2.78c6.93,13.4,45.38,33,55.7,40.35,17.29,12.24,83.3,56.37,159.92,107.29q58.73,4.92,118.85,8.33C574.75,438.27,411.71,332.32,384.93,314.92Z"/><path class="cls-5" d="M380.37,468.06c-20.38-12.64-44.09-23.59-63-37.95-19.56,13.31-18.32,19.85-31.29,39.81,2.48,1.95,6,4.54,10.5,7.69Q358.2,487.2,422,495C401.77,481.75,387,472.17,380.37,468.06Z"/><path class="cls-6" d="M95.21,316.15a642.61,642.61,0,0,0,84.18,5.5A686.7,686.7,0,0,0,328.5,305a727,727,0,0,0,251-109C657,142.87,720.68,76.94,769,0h-2.35C718.56,76.26,655.25,141.62,578.36,194.36A724.64,724.64,0,0,1,328.07,303c-78.38,17.43-156.64,21.17-232.59,11.13A594.51,594.51,0,0,1,0,293.58v2.1A598.32,598.32,0,0,0,95.21,316.15Z"/><path class="cls-4" d="M525.07,244c-20.38-12.64-44.1-23.59-63-37.95-19.56,13.31-18.32,19.85-31.29,39.81C469.72,276.21,766,464.26,863.57,526q46.08,1,92.78,1C888.83,484.35,564.44,268.36,525.07,244Z"/></g></svg>