<svg xmlns="http://www.w3.org/2000/svg" viewBox="0 0 1920 530"><defs><style>.cls-1{fill:#00f6d6;fill-rule:evenodd;}.cls-2{fill:#b9fbf5;}.cls-3{fill:#b0faf4;}.cls-4{fill:#6df8eb;}.cls-5{fill:#54f7e9;}</style></defs><title>le book</title><g id="le_book" data-name="le book"><path class="cls-1" d="M1,0V418.32C277.17,487.06,606.88,527,961,527s683.83-39.94,960-108.68V0Z"/><path class="cls-2" d="M964.62,82.4C832.18,108.84,754.23,184.17,698.16,283.09c-43.25,76.3-46.18,156.32-30.62,234.67q66.29,4.23,134.18,6.55C946,401.2,1009.08,247,964.62,82.4Z"/><path class="cls-3" d="M865.18,183c-52.28-43.81-132.8-40.91-192.74,18.74C621.12,252.79,627.2,342.49,661,401c77.89,134.77,276.38,5.66,254.34-125.07C908.45,235.1,890,203.77,865.18,183Z"/><path class="cls-4" d="M689.14,303.2C690.51,356.49,747,385.83,796,376.77c50.05-9.24,77.4-84.33,42.7-122.39-13.79-15.13-45.62-28.63-66.13-28.67-8.07,0-16,2-23.6,4.07a98.26,98.26,0,0,0-35.54,18.51C695.9,262.83,688.62,282.9,689.14,303.2Z"/><path class="cls-4" d="M1373.76,503.56c-8.21-5.12-17.82-14.9-27.91-14.86a177.87,177.87,0,0,1,8.81,21.33q12.91-1.14,25.75-2.33Z"/><path class="cls-5" d="M1368.43,152.55A143.79,143.79,0,0,0,1382,185c12.69,21.44,35.43,60.56,61,69,42.43,14,23.15-24.82,14-48.12-10.42-26.47-29-77.26-60.39-86.36C1364.45,110.17,1362.68,131.17,1368.43,152.55Z"/><path class="cls-5" d="M1501,146c6.42,33.18,38.56,80.72,59,86.7,45.3,13.27,39.18-35.79,23.62-61.38-11-18.15-34.53-54.72-58-57.43C1502.59,111.23,1497.13,126,1501,146Z"/><path class="cls-5" d="M1481.51,454.75c-23-2.65-28.43,12.13-24.56,32.11a98.38,98.38,0,0,0,3.4,12.58q33.11-3.74,65.66-8C1513.89,474.57,1497.7,456.62,1481.51,454.75Z"/><path class="cls-5" d="M1358.65,298.56a49.64,49.64,0,0,0,2,6.7c6.44,17.21,17.23,32.95,28.87,47.47,8.63,10.74,24.27,34.94,39.34,35.13,44.34.57-11.36-110.51-25.17-122.77C1374.82,239.46,1351.89,268.35,1358.65,298.56Z"/><path class="cls-5" d="M1515.47,364.53c9.44,39.09,50.53,90.45,75.52,95.13,31.47,5.88,16.33-38.48,8-54.05-9.27-17.25-52.63-115.5-80.82-73.59C1512.68,340.13,1512.36,351.66,1515.47,364.53Z"/><path class="cls-5" d="M1673.25,448.83c-3.83,5.7-5.12,13.09-4.48,21.44q25.45-4.29,50.49-8.86C1704.09,441.1,1686.89,428.55,1673.25,448.83Z"/><path class="cls-5" d="M1643.35,292.71a94.42,94.42,0,0,0,3.19,16.31c7.37,23.55,23.21,74.86,53.68,76.71,25.22,1.53,24-32.57,19.68-51.34-4.2-18.16-39.38-84.37-64.66-79.57C1642.81,257.18,1641.57,276.8,1643.35,292.71Z"/><path class="cls-5" d="M1220.14,114.61a93.42,93.42,0,0,0,3.19,16.32c7.37,23.55,23.21,74.85,53.68,76.71,25.21,1.53,24-32.58,19.68-51.35-4.21-18.15-39.39-84.37-64.66-79.56C1219.6,79.09,1218.35,98.7,1220.14,114.61Z"/><path class="cls-5" d="M1235.7,316.68c9,37.38,40.58,81.08,63.21,75.79,25-5.85,13-48.65,7.52-63.92-6-16.77-24.54-64.7-48.81-61.84C1233.86,269.52,1229.71,291.69,1235.7,316.68Z"/><path class="cls-3" d="M441.81,497.45l-2-.36c18.25-100.45,15-209.47-9.42-315.26C414.7,113.73,392.75,54.41,363.29.48l1.76-1c29.54,54.1,51.56,113.58,67.32,181.86C456.85,287.43,460.11,396.73,441.81,497.45Z"/><path class="cls-3" d="M446.63,466.69c-67.44-102.44-142-203.19-221.69-296-34.14,27-58.84,81.42-76.15,116.29-26.81,54-29.56,104.28-19.87,160.54,107.45,22,221.57,39.9,340.9,53.09Q457.92,483.75,446.63,466.69Z"/></g></svg>