<svg xmlns="http://www.w3.org/2000/svg" viewBox="0 0 1920 530"><defs><style>.cls-1{fill:#00f6d6;}.cls-1,.cls-7{fill-rule:evenodd;}.cls-2{fill:#b9fbf5;}.cls-3{fill:#c5fbf6;}.cls-4{fill:#b0faf4;}.cls-5{fill:#6df8eb;}.cls-6,.cls-7{fill:#54f7e9;}</style></defs><title>shooting stdio</title><g id="shooting_studio" data-name="shooting studio"><path class="cls-1" d="M1,0V418.32C277.17,487.06,606.88,527,961,527s683.83-39.94,960-108.68V0Z"/><path class="cls-2" d="M1138.58,524.58l2.88-2c77.19-52.51,165-89.4,261-109.65,106.77-22.54,248-9.12,377.68,35.87l3.47,1.2-3.6.73c-199.13,40.09-413.75,64.88-637.9,73.67Zm375.29-120.35c-39.53,0-77,3.52-111,10.69-94.51,19.95-181.07,56.07-257.34,107.39C1366.93,513.45,1579,489,1776,449.53,1688.94,419.77,1596.94,404.23,1513.87,404.23Z"/><path class="cls-3" d="M192.29,256.41c-63.71,13.14-91.13,76.08-104,135.3Q83.46,414.06,79.49,437c104.93,23.19,216.7,42.36,333.87,57-3.4-8.23-6.65-16.44-9.79-24.57C371.53,386.41,308.27,232.49,192.29,256.41Z"/><path class="cls-3" d="M1037.12,2.68c63,76.34,78,197.53,31.61,285.73-66.2,126-259.54,178.7-370.5,78.08-82.47-74.78-121.16-192.06-76.9-298.65,5.88-14.17,11.88-29.35,19.93-42.38A189.63,189.63,0,0,1,660.2,0H529.87c-46.36,83.06-54.68,182.52-32.37,276.87,33.26,140.69,119.06,207.78,256.26,235.52,119.7,24.21,276.35-3.48,360.22-98.8,86.3-98.07,100.69-220.62,68.45-331.5A338.72,338.72,0,0,0,1145.84,0h-111C1035.6.89,1036.36,1.77,1037.12,2.68Z"/><path class="cls-2" d="M1833.74,330.12c-26.4-132.24-101.62-210.06-200.38-266C1529.18,5,1418.06,21.25,1313.75,57,1446,277.32,1632.09,384.59,1833.74,330.12Z"/><path class="cls-4" d="M1733.32,230.83c43.75-52.2,40.85-132.59-18.72-192.44-51-51.24-140.55-45.17-198.92-11.43-134.56,77.77-5.65,276,124.87,253.94C1681.27,274,1712.55,255.61,1733.32,230.83Z"/><path class="cls-5" d="M1613.27,55.07c-53.2,1.37-82.49,57.76-73.45,106.72,9.23,50,84.21,77.28,122.2,42.64,15.11-13.78,28.59-45.55,28.62-66,0-8.06-2-15.93-4.06-23.57a98.06,98.06,0,0,0-18.47-35.48C1653.58,61.82,1633.55,54.54,1613.27,55.07Z"/><path class="cls-5" d="M295.16,56.42C270.41,72.34,229.08,82,208.73,54.5,196,37.23,190.29,18,191.28,0H140.13a104.18,104.18,0,0,0,.8,23.38c16.64,113.4,165.43,125.18,215.24,29.5A104.91,104.91,0,0,0,367.89,0H327.45C326.29,22.45,315.15,43.55,295.16,56.42Z"/><path class="cls-5" d="M968.33,527q13.5,0,26.95-.13a165.19,165.19,0,0,0-9.94-16.31C978.85,513.05,973.29,519.3,968.33,527Z"/><path class="cls-6" d="M715.17,152.32c5.61-8.71,13.26-17.14,19-26-30.08-22.31-35.89-23.7-47.93-27.62-21.11,27-42.46,61.18-59.94,84.75-15.32,20.65-27.19,45.39-40.68,67.25-14.26,23.1-34.45,41.76-48.83,65.66-10.94,18.17-60.9,94.16-116.52,178.47q28.56,3.51,57.55,6.66c34.1-53.66,60.75-95.83,69.52-109.76,31-49.17,67.5-94.61,99.56-143.08C668.74,215.58,694,185.17,715.17,152.32Z"/><path class="cls-6" d="M819.61,233.54c10.33-12,15.69-27.61,23.67-41.27-8.78-4.4-18-8.35-25.89-12.61a168.35,168.35,0,0,1-21-13.44c-4.25,6.38-10.2,13.78-11.55,16.18-11.38,20.28-27.35,38.32-40.08,57.8-13.48,20.62-27.78,41-40.41,62.35-27.25,46.09-55.71,89.93-85.11,134.75-6.33,9.66-24,36.73-47.74,73.26q33.9,2.93,68.28,5.33c34.47-52.18,61.38-93.07,70.08-106.5,23.83-36.77,50.3-74.12,69.21-113.46A278.84,278.84,0,0,1,819.61,233.54Z"/><path class="cls-4" d="M1172.32,32.55c6.54-16.64,25.33-22.07,39.23-32.55h-40.89Q1171.32,16.23,1172.32,32.55Z"/><path class="cls-7" d="M960.09,272.16c-30.08-22.31-35.89-23.7-47.93-27.62-21.11,27-42.46,61.17-59.94,84.75-15.32,20.65-27.2,45.38-40.69,67.24-14.25,23.1-34.44,41.76-48.83,65.66-5.14,8.55-18.92,29.89-37.85,58.86q28.57,1.46,57.42,2.56c28.9-43.9,61.54-85.28,90.55-129.13,21.85-33,47.11-63.44,68.28-96.3C946.71,289.48,954.36,281,960.09,272.16Z"/></g></svg>