<svg xmlns="http://www.w3.org/2000/svg" viewBox="0 0 1920 530"><defs><style>.cls-1{fill:#00f6d6;fill-rule:evenodd;}.cls-2{fill:#b0faf4;}.cls-3{fill:#c5fbf6;}.cls-4{fill:#6df8eb;}.cls-5{fill:#54f7e9;}</style></defs><title>shooting sur mesure</title><g id="shooting_sur_mesure" data-name="shooting sur mesure"><path class="cls-1" d="M1,0V418.32C277.17,487.06,606.88,527,961,527s683.83-39.94,960-108.68V0Z"/><path class="cls-2" d="M960,528v-2c11.17,0,22.76,0,34.47-.13a630.6,630.6,0,0,0,59.92-172.26c24.29-126.93,13.16-241.82-34.05-351.21l1.84-.8c47.37,109.78,58.55,225.05,34.17,352.39A632.31,632.31,0,0,1,996,527.33l-.28.53h-.6C983.17,528,971.36,528,960,528Z"/><path class="cls-3" d="M1779.5,272.45c-83.68-87.74-202.77-127.86-314.4-167.23-108.49-38.27-264.95-90.16-376.51-37-53,25.24-90.13,69.45-108.14,121.21a228.14,228.14,0,0,0-6,127.72c19.76,83.1,67.92,155.14,133.19,207.51,273.82-8.69,529.86-41.32,753.77-92.39C1848.19,373.31,1822.93,318,1779.5,272.45Z"/><path class="cls-4" d="M936.59,507.91c-60.52-33.43-121.14-66.79-183.68-96.34C730.56,401,709.83,387.5,689,374.28c-15.07-9.57-31.38-18-45.55-28.88-.34.57-.67,1.16-1,1.72C630.07,366.71,615,385,601.25,403.83c-22.22,30.33-38.91,63.92-60.44,94.91q-2.94,4.25-5.8,8.53,57.81,5.46,117.06,9.48c16.75-7,32.21-12.53,33.78-9.5.84,1.61,1.86,5.76,3,11.82C777.27,524.29,867.81,527,960,527l11.38,0Q954,517.47,936.59,507.91Z"/><path class="cls-5" d="M148.69,422c33.34-6.46,81.1-38.75,87.1-59.24,13.34-45.52-35.95-39.37-61.67-23.73-18.23,11.08-55,34.69-57.7,58.29C113.76,420.37,128.61,425.86,148.69,422Z"/><path class="cls-5" d="M491.16,466.22c33.34-6.46,81.1-38.74,87.11-59.24,13.33-45.51-36-39.37-61.68-23.73-18.23,11.08-55,34.69-57.69,58.29C456.23,464.62,471.08,470.11,491.16,466.22Z"/><path class="cls-5" d="M214.63,463.92q22.25,4,44.81,7.73C264.82,443.27,236.12,455.17,214.63,463.92Z"/><path class="cls-5" d="M338.66,483.91q26.23,3.78,52.83,7.25C389.16,473.36,365.05,475.33,338.66,483.91Z"/><path class="cls-5" d="M368.25,407.43c39.28-9.48,90.87-50.77,95.57-75.88,5.92-31.61-38.65-16.4-54.3-8-17.32,9.31-116,52.88-73.93,81.2C343.73,410.23,355.33,410.55,368.25,407.43Z"/><path class="cls-5" d="M485.62,251.59c39.27-9.49,90.87-50.78,95.57-75.88,5.91-31.62-38.66-16.41-54.3-8-17.33,9.31-116,52.88-73.94,81.2C461.1,254.39,472.69,254.71,485.62,251.59Z"/><path class="cls-5" d="M296.09,278.94a94.22,94.22,0,0,0,16.4-3.2c23.65-7.41,75.2-23.32,77.07-53.94,1.53-25.33-32.73-24.14-51.59-19.77-18.24,4.23-84.77,39.57-79.94,65C260.4,279.48,280.11,280.74,296.09,278.94Z"/><path class="cls-5" d="M694.36,142.34a93,93,0,0,0,16.39-3.21c23.66-7.4,75.21-23.31,77.07-53.93,1.54-25.33-32.72-24.14-51.58-19.77-18.24,4.22-84.77,39.57-79.94,65C658.67,142.88,678.38,144.13,694.36,142.34Z"/><path class="cls-5" d="M641.49,292.17c37.55-9,81.46-40.78,76.14-63.51-5.87-25.13-48.87-13.08-64.22-7.56-16.85,6.08-65,24.66-62.13,49C594.11,294,616.38,298.19,641.49,292.17Z"/><path class="cls-2" d="M1663,471.49a725,725,0,0,1-45.08-136.59c-25.4-114.25-21.7-229.46,10.68-333.2l1.91.6c-32.28,103.4-36,218.26-10.63,332.16a721.47,721.47,0,0,0,44.95,136.21Z"/><path class="cls-5" d="M1453,286.51c-17.11,21.89-83.43,124.12-149.79,227.71q34.74-2.61,69-5.76c40.93-62,73.93-112.23,82.68-126.34,12.82-20.67,23.93-44.73,38.49-63.87C1479.84,298.4,1473.21,299.66,1453,286.51Z"/><path class="cls-5" d="M1680.3,433.29c-5.17,6.61-14.82,20.55-27.61,39.65q33.13-5.43,65.58-11.35C1706.32,445.29,1699.31,445.63,1680.3,433.29Z"/><path class="cls-5" d="M1563.5,366a10.14,10.14,0,0,0-2.83,1c-13.59,7-33.51,46-40.93,56.5s-26,38-50.67,74.93q37.65-4.33,74.57-9.29c33.2-51.07,58.73-90.36,66.56-102.41C1609.09,388.46,1568.05,365.25,1563.5,366Z"/></g></svg>