<svg id="tarif" xmlns="http://www.w3.org/2000/svg" viewBox="0 0 1920 530"><defs><style>.cls-1{fill:#00f6d6;fill-rule:evenodd;}.cls-2{fill:#c5fbf6;}.cls-3{fill:#6df8eb;}.cls-4{fill:#54f7e9;}.cls-5{fill:#b0faf4;}</style></defs><title>tarif</title><path class="cls-1" d="M0,0V418.32C276.17,487.06,605.88,527,960,527s683.83-39.94,960-108.68V0Z"/><path class="cls-2" d="M939.14,190.57C921.21,139,884.21,95,831.5,69.92c-111-52.92-266.76-1.27-374.74,36.81-111.11,39.19-229.65,79.13-312.94,166.46-43.42,45.53-68.6,100.89-81.68,159.89C285.11,483.67,539.77,516,812,524.66c65.24-52.16,113.38-124,133.11-207A227,227,0,0,0,939.14,190.57Z"/><path class="cls-3" d="M1376.72,498.42c-21.43-30.85-38-64.28-60.16-94.47-13.72-18.73-28.68-36.94-41-56.44-.35-.57-.68-1.14-1-1.72-14.11,10.86-30.34,19.23-45.33,28.75-20.73,13.16-41.36,26.61-63.61,37.12-62.24,29.41-122.59,62.61-182.82,95.88q-17.7,9.78-35.45,19.44L960,527c91.54,0,181.45-2.68,269.22-7.82,1.23-6.33,2.28-10.65,3.14-12.3,1.6-3.08,17.63,2.72,34.72,9.92q58.59-3.93,115.79-9.33C1380.84,504.44,1378.8,501.42,1376.72,498.42Z"/><path class="cls-4" d="M1656.93,472.24q23.14-3.81,45.94-7.87C1681.16,455.55,1650.76,442.31,1656.93,472.24Z"/><path class="cls-4" d="M1767,422c-33.18-6.42-80.72-38.56-86.7-59-13.27-45.3,35.79-39.18,61.38-23.62,18.15,11,54.72,34.53,57.43,58C1801.77,420.41,1787,425.87,1767,422Z"/><path class="cls-4" d="M1426.14,466.05c-33.18-6.43-80.72-38.56-86.7-59-13.27-45.3,35.79-39.18,61.38-23.62,18.15,11,54.72,34.53,57.43,58C1460.9,464.46,1446.12,469.92,1426.14,466.05Z"/><path class="cls-4" d="M1525.26,491.58q27.32-3.54,54.24-7.41C1552.29,475.09,1527.07,472.74,1525.26,491.58Z"/><path class="cls-4" d="M1548.47,407.53C1509.38,398.09,1458,357,1453.34,332c-5.88-31.47,38.48-16.33,54.05-8,17.25,9.27,115.5,52.63,73.59,80.82C1572.87,410.32,1561.34,410.64,1548.47,407.53Z"/><path class="cls-4" d="M1431.66,252.42c-39.1-9.44-90.45-50.54-95.13-75.52-5.88-31.47,38.47-16.33,54-8,17.24,9.27,115.49,52.64,73.59,80.82C1456.06,255.2,1444.52,255.53,1431.66,252.42Z"/><path class="cls-4" d="M1620.29,279.65a94.42,94.42,0,0,1-16.31-3.19c-23.55-7.37-74.86-23.21-76.71-53.68-1.53-25.22,32.57-24,51.34-19.68,18.16,4.2,84.37,39.38,79.57,64.66C1655.82,280.19,1636.2,281.43,1620.29,279.65Z"/><path class="cls-4" d="M1223.89,143.68a93.42,93.42,0,0,1-16.32-3.19c-23.55-7.37-74.85-23.21-76.71-53.68-1.53-25.21,32.58-24,51.35-19.68,18.15,4.21,84.37,39.39,79.56,64.66C1259.41,144.22,1239.8,145.47,1223.89,143.68Z"/><path class="cls-4" d="M1276.51,292.81c-37.38-8.95-81.08-40.58-75.79-63.21,5.85-25,48.65-13,63.92-7.52,16.78,6,64.71,24.54,61.84,48.81C1323.67,294.65,1301.51,298.8,1276.51,292.81Z"/><path class="cls-5" d="M259.49,471.91l-1.83-.82a718.81,718.81,0,0,0,45-136.18c25.2-113.37,21.54-227.69-10.59-330.61L294,3.7C326.23,107,329.91,221.63,304.63,335.34A721.47,721.47,0,0,1,259.49,471.91Z"/><path class="cls-4" d="M468.84,287.18c-20.16,13.09-26.76,11.84-40.2,31.59,14.5,19.05,25.55,43,38.31,63.57,8.74,14.09,41.75,64.29,82.65,126.28q34.08,3.11,68.65,5.71C552.09,411.05,485.9,309,468.84,287.18Z"/><path class="cls-4" d="M242.56,433.27c-19.15,12.44-26.07,11.94-38.23,28.8q32.73,5.94,66.2,11.39C257.56,454.09,247.77,439.94,242.56,433.27Z"/><path class="cls-4" d="M402.36,423.55c-7.37-10.42-27.2-49.23-40.73-56.24a9.68,9.68,0,0,0-2.81-1c-4.53-.76-45.38,22.33-46.49,20.63L379,489.51q36.74,4.9,74.2,9.2C428.43,461.67,409.71,433.93,402.36,423.55Z"/></svg>