<svg data-name="Calque 1" xmlns="http://www.w3.org/2000/svg" viewBox="0 0 18.87 18.9"><path d="M14.89 7.72a.57.57 0 0 0-.57-.56.56.56 0 0 0-.56.56.57.57 0 0 0 .56.57.58.58 0 0 0 .57-.57zm1.16-6.21h-1.16V.57a.58.58 0 0 0-.57-.57.57.57 0 0 0-.56.57v.94h-3.8V.57A.57.57 0 0 0 9.4 0a.58.58 0 0 0-.57.57v.94H5.07V.57a.56.56 0 1 0-1.12 0v.94H2.82A2.82 2.82 0 0 0 0 4.33v11.75a2.82 2.82 0 0 0 2.82 2.82h5.75a.56.56 0 0 0 .56-.56.57.57 0 0 0-.56-.57H2.82a1.69 1.69 0 0 1-1.69-1.69V4.33a1.69 1.69 0 0 1 1.69-1.69h1.13v.93a.56.56 0 1 0 1.12 0v-.94h3.76v.94a.58.58 0 0 0 .57.57.57.57 0 0 0 .56-.57v-.94h3.8v.94a.57.57 0 0 0 .56.57.58.58 0 0 0 .57-.57v-.94h1.16a1.69 1.69 0 0 1 1.69 1.69v4.3a.57.57 0 0 0 .57.56.56.56 0 0 0 .56-.56v-4.3a2.82 2.82 0 0 0-2.82-2.81zm-1.54 8.66a4.37 4.37 0 1 0 4.36 4.4 4.37 4.37 0 0 0-4.36-4.4zm0 7.6a3.24 3.24 0 1 1 3.23-3.2 3.23 3.23 0 0 1-3.23 3.2zm1.09-3.8h-.53v-1a.56.56 0 0 0-1.12 0v1.6a.56.56 0 0 0 .56.56h1.09a.57.57 0 0 0 0-1.13zm-4-6.25a.57.57 0 0 0-.57-.56.56.56 0 0 0-.56.56.57.57 0 0 0 .56.57.58.58 0 0 0 .59-.57zm-3.82 2.71a.57.57 0 0 0-.56.57.56.56 0 0 0 .56.56.57.57 0 0 0 .57-.56.58.58 0 0 0-.57-.57zM4.51 7.16a.56.56 0 0 0-.56.56.56.56 0 1 0 1.12 0 .56.56 0 0 0-.56-.56zm0 3.27a.57.57 0 0 0-.56.57.56.56 0 1 0 1.12 0 .57.57 0 0 0-.56-.57zm0 3.28a.56.56 0 0 0-.56.56.56.56 0 1 0 1.12 0 .56.56 0 0 0-.56-.56zm3.27 0a.56.56 0 0 0-.56.56.57.57 0 0 0 .56.57.58.58 0 0 0 .57-.57.57.57 0 0 0-.57-.56zm0-6.55a.56.56 0 0 0-.56.56.57.57 0 0 0 .56.57.58.58 0 0 0 .57-.57.57.57 0 0 0-.57-.56z"/></svg>