<svg viewBox="0 0 500 500" xmlns="http://www.w3.org/2000/svg"><path d="M151 22.5v64.348c0 48.394 8.44 95.637 25 140.728a406.364 406.364 0 0025-140.728V22.5h50v64.348c0 61.273-11.97 120.91-35.53 177.273l-12.334 29.53 21.849 52.273A74.227 74.227 0 01276 325.53c41.364 0 75 33.985 75 75.758s-33.636 75.757-75 75.757c-33.076 0-61.167-21.772-71.106-51.848l-.879.379-28.015-67-28.015 67-.879-.379c-9.94 30.076-38.03 51.848-71.106 51.848-41.364 0-75-33.984-75-75.757s33.636-75.758 75-75.758c19.697 0 37.621 7.773 51.015 20.394l21.849-52.272-12.334-29.516A457.273 457.273 0 01101 86.864V22.5h50zm300 0c27.576 0 50 22.652 50 50.5v404.045h-50V300.273H351v-50.5h100v-25.258H351v-50.5h100v-25.257H351v-50.5h100V73H351V22.5h100zM276 376.03c-13.788 0-25 11.334-25 25.258s11.212 25.257 25 25.257 25-11.333 25-25.257a25.152 25.152 0 00-25-25.258zm-200 0c-13.788 0-25 11.334-25 25.258s11.212 25.257 25 25.257 25-11.333 25-25.257a25.152 25.152 0 00-25-25.258z" fill="#fff"/></svg>