<svg  viewBox="0 0 500 500" xmlns="http://www.w3.org/2000/svg" xmlns:svg="http://www.w3.org/2000/svg">
  <path d="m151,22.5l0,64.34848c0,48.39394 8.43939,95.63636 25,140.72727a406.36363,406.36363 0 0 0 25,-140.72727l0,-64.34848l50,0l0,64.34848c0,61.27273 -11.9697,120.90909 -35.5303,177.27273l-12.33333,29.5303l21.84848,52.27273a74.22727,74.22727 0 0 1 51.01515,-20.39394c41.36364,0 75,33.98485 75,75.75758s-33.63636,75.75758 -75,75.75758c-33.07576,0 -61.16667,-21.77273 -71.10606,-51.84848l-0.87879,0.37879l-28.01515,-67l-28.01515,67l-0.87879,-0.37879c-9.93939,30.07576 -38.0303,51.84848 -71.10606,51.84848c-41.36364,0 -75,-33.98485 -75,-75.75758s33.63636,-75.75758 75,-75.75758c19.69697,0 37.62121,7.77273 51.01515,20.39394l21.84848,-52.27273l-12.33333,-29.51515a457.27272,457.27272 0 0 1 -35.5303,-177.27273l0,-64.36364l50,0l0,0.00001zm300,0c27.57576,0 50,22.65151 50,50.5l0,404.04545l-50,0l0,-176.77273l-100,0l0,-50.5l100,0l0,-25.25758l-100,0l0,-50.5l100,0l0,-25.25758l-100,0l0,-50.5l100,0l0,-25.25758l-100,0l0,-50.5l100,0l0,0.00002zm-175,353.5303c-13.78788,0 -25,11.33333 -25,25.25758s11.21212,25.25758 25,25.25758c13.78788,0 25,-11.33333 25,-25.25758a25.15151,25.15151 0 0 0 -25,-25.25758zm-200,0c-13.78788,0 -25,11.33333 -25,25.25758s11.21212,25.25758 25,25.25758c13.78788,0 25,-11.33333 25,-25.25758a25.15151,25.15151 0 0 0 -25,-25.25758z" fill="#fff"/>
</svg>
