<svg data-name="Calque 1" xmlns="http://www.w3.org/2000/svg" viewBox="0 0 20.51 20.54"><path d="M.6 3.66a.6.6 0 00.6-.61V1.21h1.84a.61.61 0 000-1.21H.6a.6.6 0 00-.6.61v2.44a.6.6 0 00.6.61zM19.91 0h-2.42a.61.61 0 000 1.21h1.85v1.84a.6.6 0 101.2 0V.57a.6.6 0 00-.63-.57zM3.04 19.34H1.2V17.5a.6.6 0 10-1.2 0v2.45a.6.6 0 00.6.6h2.44a.61.61 0 000-1.21zm16.87-2.44a.6.6 0 00-.6.6v1.84h-1.82a.615.615 0 000 1.23h2.45a.6.6 0 00.6-.6V17.5a.6.6 0 00-.63-.6zM5.49 5.57a2.26 2.26 0 00-1.63.68.601.601 0 00.85.85 1.1 1.1 0 011.55 0 .601.601 0 00.85-.85 2.25 2.25 0 00-1.62-.68zm6.43.68a2.28 2.28 0 00-3.25 0 .601.601 0 00.85.85 1.06 1.06 0 01.77-.32 1.08 1.08 0 01.78.32.59.59 0 00.85 0 .61.61 0 00-.04-.86zm2 8.25a1.81 1.81 0 10-1.8-1.81 1.81 1.81 0 001.74 1.8zm0-2.41a.6.6 0 11-.6.6.6.6 0 01.54-.61zm5.45 4.21V9.07a.6.6 0 00-.6-.6h-1.91v-.6a.6.6 0 10-1.2 0v.6h-1.23a6.63 6.63 0 10-6.58 7.22h.6v.63a.6.6 0 00.6.61h9.66a.6.6 0 00.6-.64zM8.49 12.02a3.05 3.05 0 01-.6.06 3 3 0 01-2.95-2.41h3.55zM4.24 8.47a.6.6 0 00-.6.6 4.22 4.22 0 004.21 4.21 4 4 0 00.6 0v1.21a4 4 0 01-.6 0 5.42 5.42 0 115.37-6zm13.87 7.22H9.65v-6h8.46z"/></svg>