<svg xmlns="http://www.w3.org/2000/svg" width="90" height="90" viewBox="0 0 18 18"><path data-name="Forme 9 copie 2" d="M14.52.011H3.47A3.479 3.479 0 0 0 0 3.487v11.037A3.478 3.478 0 0 0 3.47 18h11.05A3.48 3.48 0 0 0 18 14.526V3.487A3.481 3.481 0 0 0 14.52.011zm1 2.073h.4v3.049l-3.05.011-.01-3.05zM6.43 7.158a3.163 3.163 0 0 1 5.14 0 3.418 3.418 0 0 1 .19.3 3.108 3.108 0 0 1 .41 1.543 3.17 3.17 0 0 1-6.34 0 3.108 3.108 0 0 1 .41-1.543 3.418 3.418 0 0 1 .19-.299zm9.82 7.365a1.731 1.731 0 0 1-1.73 1.723H3.47a1.723 1.723 0 0 1-1.72-1.723V7.159h2.69a4.424 4.424 0 0 0-.18.508 4.925 4.925 0 1 0 9.47 0 7.754 7.754 0 0 0-.17-.508h2.69v7.365z" fill-rule="evenodd"/></svg>