<svg xmlns="http://www.w3.org/2000/svg" width="90" height="90" viewBox="0 0 18 18">
  <defs>
    <style>
      .cls-1 {
        fill-rule: evenodd;
      }
    </style>
  </defs>
  <path id="Forme_9_copie_2" data-name="Forme 9 copie 2" class="cls-1" d="M1657.52,9.011h-11.05a3.479,3.479,0,0,0-3.47,3.476V23.524A3.478,3.478,0,0,0,1646.47,27h11.05a3.48,3.48,0,0,0,3.48-3.474V12.487A3.481,3.481,0,0,0,1657.52,9.011Zm1,2.073,0.4,0v3.049l-3.05.011-0.01-3.05Zm-9.09,5.074a3.163,3.163,0,0,1,5.14,0,3.418,3.418,0,0,1,.19.3,3.108,3.108,0,0,1,.41,1.543,3.17,3.17,0,0,1-6.34,0,3.108,3.108,0,0,1,.41-1.543A3.418,3.418,0,0,1,1649.43,16.159Zm9.82,7.365a1.731,1.731,0,0,1-1.73,1.723h-11.05a1.723,1.723,0,0,1-1.72-1.723V16.159h2.69a4.424,4.424,0,0,0-.18.508,4.925,4.925,0,1,0,9.47,0c-0.05-.174-0.11-0.343-0.17-0.508h2.69v7.365Z" transform="translate(-1643 -9)"/>
</svg>
