<svg viewBox="0 0 299 299" xmlns="http://www.w3.org/2000/svg" xmlns:svg="http://www.w3.org/2000/svg">
  <path d="m99.73264,149.59896c0,27.5661 22.30022,49.86632 49.86632,49.86632s49.86632,-22.30022 49.86632,-49.86632s-22.30022,-49.86632 -49.86632,-49.86632s-49.86632,22.30022 -49.86632,49.86632zm124.67578,0c0,41.25939 -33.55006,74.80945 -74.80945,74.80945c-41.25939,0 -74.80945,-33.55006 -74.80945,-74.80945c0,-41.25939 33.55006,-74.80945 74.79948,-74.80945c41.26937,0 74.81943,33.55006 74.81943,74.79948l0,0.00997zm24.93316,-87.26606c0,6.85163 -5.60497,12.45661 -12.46658,12.45661s-12.46658,-5.60497 -12.46658,-12.46658s5.60497,-12.46658 12.46658,-12.46658s12.46658,5.60497 12.46658,12.46658l0,0.00997zm-162.07552,-62.3329c-48.121,0 -87.26606,39.15504 -87.26606,87.26606l0,124.6658c0,48.11103 39.15504,87.26606 87.26606,87.26606l124.6658,0c48.11103,0 87.26606,-39.15504 87.26606,-87.26606l0,-124.6658c0,-48.11103 -39.15504,-87.26606 -87.26606,-87.26606l-124.6658,0z"/>
</svg>
