<svg viewBox="0 0 299 299" xmlns="http://www.w3.org/2000/svg"><path d="M99.733 149.599c0 27.566 22.3 49.866 49.866 49.866s49.866-22.3 49.866-49.866-22.3-49.866-49.866-49.866-49.866 22.3-49.866 49.866zm124.675 0c0 41.26-33.55 74.81-74.809 74.81-41.26 0-74.81-33.55-74.81-74.81 0-41.26 33.55-74.81 74.8-74.81 41.27 0 74.82 33.55 74.82 74.8v.01zm24.934-87.266c0 6.852-5.605 12.457-12.467 12.457s-12.467-5.605-12.467-12.467 5.605-12.467 12.467-12.467 12.467 5.605 12.467 12.467v.01zM87.266 0C39.146 0 0 39.155 0 87.266v124.666c0 48.11 39.155 87.266 87.266 87.266h124.666c48.11 0 87.266-39.155 87.266-87.266V87.266C299.198 39.155 260.043 0 211.932 0H87.266z"/></svg>