<svg xmlns="http://www.w3.org/2000/svg" width="100" height="80" viewBox="0 0 20 16"><path d="M2.6 16A2.662 2.662 0 010 13.29V2.71A2.662 2.662 0 012.6 0h14.806a2.5 2.5 0 011.836.8 2.731 2.731 0 01.759 1.92v10.57a2.662 2.662 0 01-2.6 2.71H2.6zm0-14.43a1.129 1.129 0 00-1.1 1.15v10.57a1.12 1.12 0 001.1 1.14h14.806a1.12 1.12 0 001.1-1.05V2.72a1.129 1.129 0 00-1.1-1.15H2.6zM17 13.84a.727.727 0 01-.518-.22l-4.737-4.7-1.227 1.15a.718.718 0 01-.5.2.764.764 0 01-.5-.19L8.326 8.96l-4.767 4.66a.713.713 0 01-.511.21.741.741 0 01-.547-.25.8.8 0 01.031-1.1l4.667-4.57-4.684-4.37a.813.813 0 01-.06-1.11.729.729 0 011.06-.06l5.24 4.89a.612.612 0 01.1.1l.042.04 1.112 1.04 6.473-6.07a.732.732 0 01.5-.2.724.724 0 01.558.26.819.819 0 01-.054 1.11l-4.63 4.33 4.653 4.62a.791.791 0 01.233.55.816.816 0 01-.205.56.762.762 0 01-.537.24z"/></svg>