<svg xmlns="http://www.w3.org/2000/svg" width="100" height="80" viewBox="0 0 20 16">
  <path  d="M610.6,5906a2.662,2.662,0,0,1-2.6-2.71v-10.58a2.662,2.662,0,0,1,2.6-2.71h14.806a2.5,2.5,0,0,1,1.836.8,2.731,2.731,0,0,1,.759,1.92v10.57a2.662,2.662,0,0,1-2.6,2.71H610.6Zm0-14.43a1.129,1.129,0,0,0-1.1,1.15v10.57a1.12,1.12,0,0,0,1.1,1.14h14.806a1.12,1.12,0,0,0,1.1-1.05v-10.66a1.129,1.129,0,0,0-1.1-1.15H610.6Zm14.4,12.27a0.727,0.727,0,0,1-.518-0.22l-4.737-4.7-1.227,1.15a0.718,0.718,0,0,1-.5.2,0.764,0.764,0,0,1-.5-0.19l-1.192-1.12-4.767,4.66a0.713,0.713,0,0,1-.511.21,0.741,0.741,0,0,1-.547-0.25,0.8,0.8,0,0,1,.031-1.1l4.667-4.57-4.684-4.37a0.813,0.813,0,0,1-.06-1.11,0.729,0.729,0,0,1,1.06-.06l5.24,4.89a0.612,0.612,0,0,1,.1.1l0.042,0.04,1.112,1.04,6.473-6.07a0.732,0.732,0,0,1,.5-0.2,0.724,0.724,0,0,1,.558.26,0.819,0.819,0,0,1-.054,1.11l-4.63,4.33,4.653,4.62a0.791,0.791,0,0,1,.233.55,0.816,0.816,0,0,1-.205.56A0.762,0.762,0,0,1,625,5903.84Z" transform="translate(-608 -5890)"/>
</svg>
