<svg data-name="Calque 1" xmlns="http://www.w3.org/2000/svg" viewBox="0 0 16.5 17"><path d="M16 11.5a2.27 2.27 0 00.46-1.42 2.25 2.25 0 00-.43-1.22 2 2 0 00-.52-2.25 3.66 3.66 0 00-2.5-.72h-.42a11.79 11.79 0 00-1.72.22l-.34.07A7.83 7.83 0 0111 4.5c.51-1.54.47-2.73-.11-3.54A2.4 2.4 0 009 0a1 1 0 00-.8.37 2.44 2.44 0 00-.34 1.75c-.52 1.39-1.76 4.2-2.76 5l-.08.06a4 4 0 00-.63.92 1.62 1.62 0 00-.61-.12H1.62A1.63 1.63 0 000 9.58v5.66a1.62 1.62 0 001.62 1.62h2.12a1.72 1.72 0 00.88-.25l.75.09a36.26 36.26 0 004.15.26h1.65a7.94 7.94 0 001.65-.15 3.19 3.19 0 002.27-1.43 2.35 2.35 0 00.27-1.35 2.4 2.4 0 00.78-1.88 2.8 2.8 0 00-.14-.65zM4 15.21a.33.33 0 01-.33.33H1.58a.33.33 0 01-.29-.33V9.58a.33.33 0 01.33-.33h2.12a.33.33 0 01.33.33zm10.76-4.27a.63.63 0 00-.09.77 1.38 1.38 0 01.14.51 1.24 1.24 0 01-.59 1.05.66.66 0 00-.22.73 1 1 0 01-.08.76 2 2 0 01-1.42.8 6.63 6.63 0 01-1.37.12 11 11 0 01-1.11-.05h-.58a36.11 36.11 0 01-4-.25h-.17a.86.86 0 000-.16V9.58a1.59 1.59 0 00-.06-.43 2.65 2.65 0 01.58-1.07c1.55-1.24 3-5.22 3.2-5.67a.58.58 0 000-.32 2.7 2.7 0 010-.8 1 1 0 01.72.39 2.83 2.83 0 01-.06 2.37C9.04 5.9 9 6.89 9.52 7.36a.94.94 0 00.61.22 1.13 1.13 0 00.32 0l.58-.12h.06A9.22 9.22 0 0113 7.2a2.6 2.6 0 011.66.39.69.69 0 01.23.65 1 1 0 01-.14.39.64.64 0 00.11.83 1.13 1.13 0 01.33.69 1.17 1.17 0 01-.36.82z" fill="none"/></svg>