<svg xmlns="http://www.w3.org/2000/svg" width="148" height="41"><path data-name="logo" d="M70.5 0C60.2 0 52.134 8.778 52.134 19.987c0 11.042 8 19.687 18.223 19.687 10.3 0 18.365-8.777 18.365-19.987C88.72 8.646 80.717 0 70.5 0zm.115 35.722c-8.061 0-14.376-6.825-14.376-15.948 0-8.969 6.256-15.666 14.242-15.666 8.061 0 14.376 6.824 14.376 15.948-.002 8.97-6.257 15.667-14.244 15.667zm.016-28.072c-6.355 0-11.526 5.485-11.526 12.225S64.274 32.1 70.629 32.1s11.338-5.484 11.338-12.226S76.985 7.651 70.629 7.651zm-5.348 16.021a1.345 1.345 0 0 1-1.3-1.021 7.945 7.945 0 0 1 .727-5.8 7.357 7.357 0 0 1 4.461-3.6 1.34 1.34 0 0 1 1.652.946 1.364 1.364 0 0 1-.933 1.675 5.007 5.007 0 0 0-3.31 6.1 1.362 1.362 0 0 1-.963 1.657 1.316 1.316 0 0 1-.336.044zM.359 27.254a11.522 11.522 0 0 0 8 2.913c5.125 0 8.361-3.548 8.361-7.4 0-4.818-4.072-6.984-7.6-8.441-2.944-1.233-4.289-2.428-4.289-4.184a2.92 2.92 0 0 1 3.2-2.614c2 0 4.762 1.868 5.053 2.054a.944.944 0 0 0 1.272-.447l1.381-2.129a.941.941 0 0 0-.218-1.233 12.589 12.589 0 0 0-7.27-2.5C2.469 3.273.07 7.12.07 10.445c0 4.407 3.417 6.649 6.834 8.068 3.053 1.27 4.616 2.577 4.616 4.482a3.064 3.064 0 0 1-3.308 2.876c-2.362 0-5.307-2.2-5.489-2.316a.829.829 0 0 0-1.236.261L.179 26.132a.749.749 0 0 0 .178 1.123zm18.724 1.831a.725.725 0 0 0 .69.709h3.017a.662.662 0 0 0 .764-.709v-7.918a3.2 3.2 0 0 1 3.162-2.652c1.745 0 2.872 1.307 2.872 3.361v7.209a.7.7 0 0 0 .691.709h2.944a.725.725 0 0 0 .691-.709v-7.17c0-3.773-1.89-7.433-6.507-7.433a6.588 6.588 0 0 0-3.853 1.232V4.361a.725.725 0 0 0-.691-.71h-3.09a.725.725 0 0 0-.69.71v24.725zm16.324-6.8a7.46 7.46 0 1 0 7.452-7.806 7.717 7.717 0 0 0-7.459 7.809zm3.962 0a3.5 3.5 0 1 1 6.98 0 3.507 3.507 0 1 1-6.982.003zm99.151-11.78a4.74 4.74 0 1 0 4.733-4.781 4.756 4.756 0 0 0-4.735 4.784zm1.028 0a3.7 3.7 0 1 1 3.7 3.733 3.713 3.713 0 0 1-3.702-3.73zm1.938 2.165a.251.251 0 0 0 .251.252h.646a.251.251 0 0 0 .25-.252v-1.418h.686l.58 1.488a.286.286 0 0 0 .237.186h.712a.245.245 0 0 0 .224-.359l-.606-1.381a1.542 1.542 0 0 0 .936-1.474 1.6 1.6 0 0 0-1.622-1.647h-2.043a.252.252 0 0 0-.251.252v4.356zm1.108-2.4V9.18h1.041a.521.521 0 0 1 .541.544.529.529 0 0 1-.541.544h-1.041zM92.108 25.35c0 3.026 1.236 4.818 4.035 4.818a13.4 13.4 0 0 0 4.325-.97.682.682 0 0 0 .4-.9l-.727-2.353a.563.563 0 0 0-.8-.411 5.725 5.725 0 0 1-1.781.411.99.99 0 0 1-1.127-1.2v-5.968h3.2a.7.7 0 0 0 .691-.71v-2.5a.678.678 0 0 0-.691-.71h-3.2v-4.185a.693.693 0 0 0-.654-.71L92.8 10a.725.725 0 0 0-.69.71v4.146h-1.236a.671.671 0 0 0-.655.71v2.5a.694.694 0 0 0 .655.71h1.236v6.574zm13.2-15.8a2.577 2.577 0 0 0 0-5.153 2.579 2.579 0 0 0-.003 5.154zm-2.148 19.536a.725.725 0 0 0 .691.709h3.017a.726.726 0 0 0 .691-.709V15.565a.7.7 0 0 0-.691-.71h-3.017a.7.7 0 0 0-.691.71v13.521zm6.944 0a.726.726 0 0 0 .691.709h9.2a.7.7 0 0 0 .691-.709v-2.54a.678.678 0 0 0-.691-.709h-3.926v-.113l5.271-9.86a.664.664 0 0 0-.618-1.009h-9.6a.671.671 0 0 0-.654.71v2.577a.694.694 0 0 0 .654.71h4.144v.074l-5.166 9.786v.374zm17.706-.337l-5.162 11.243a.667.667 0 0 0 .618 1.008h3.126a.728.728 0 0 0 .618-.448l11.123-24.726a.638.638 0 0 0-.618-.971h-2.908a.776.776 0 0 0-.872.411l-3.635 8.44h-.037l-3.671-8.44a.653.653 0 0 0-.618-.411H122.5a.658.658 0 0 0-.618.971z" fill-rule="evenodd"/></svg>