<svg data-name="Calque 1" xmlns="http://www.w3.org/2000/svg" viewBox="0 0 16 13.5"><path d="M8 13.5a.65.65 0 0 1-.31-.08 23 23 0 0 1-5.09-3.9A11.83 11.83 0 0 1 .69 7 5.41 5.41 0 0 1 0 4.26a4.51 4.51 0 0 1 1.31-2.95 4.25 4.25 0 0 1 3-1.26 4.25 4.25 0 0 1 3.68 2.22A4.25 4.25 0 0 1 11.68 0a4.25 4.25 0 0 1 3 1.26 4.51 4.51 0 0 1 1.31 2.95A5.41 5.41 0 0 1 15.31 7a11.83 11.83 0 0 1-1.91 2.57 23 23 0 0 1-5.09 3.9.65.65 0 0 1-.31.03zM4.3 1.17a3.18 3.18 0 0 0-3.07 3.09c-.17 3.52 5.43 7.15 6.77 8 1.34-.81 6.94-4.44 6.77-8a3.18 3.18 0 0 0-3.07-3.09c-2.29 0-3.08 2.63-3.09 2.65a.6.6 0 0 1-.59.44.61.61 0 0 1-.59-.44 3.47 3.47 0 0 0-3.09-2.65z" fill="none"/></svg>