<svg data-name="Calque 1" xmlns="http://www.w3.org/2000/svg" viewBox="0 0 16 16.5"><path d="M14.35 3.23A7.89 7.89 0 009 .08a7.7 7.7 0 00-5.86 1.6l-.61-.63c-.17-.18-.33-.12-.36.13L2 3.43a.37.37 0 00.41.42l2.18-.2c.25 0 .31-.19.13-.37l-.63-.65a6.48 6.48 0 014.77-1.24 6.65 6.65 0 014.46 2.65 7.12 7.12 0 01-.13 8.61 6.8 6.8 0 01-1.11 1.1 6.54 6.54 0 01-5 1.37 6.63 6.63 0 01-4.4-2.61 7.09 7.09 0 01-1.35-5 .66.66 0 00-.57-.74.65.65 0 00-.71.59 8.38 8.38 0 001.61 5.94A7.92 7.92 0 007 16.44a7.82 7.82 0 005.91-1.64 8.12 8.12 0 001.28-1.29 8.44 8.44 0 00.16-10.26zm-6.66-.34a.52.52 0 00-.52.53v5.36l4.75 2.53a.46.46 0 00.23.06.54.54 0 00.47-.29.55.55 0 00-.23-.73L8.21 8.12v-4.7a.52.52 0 00-.52-.53z" fill="none"/></svg>