<svg xmlns="http://www.w3.org/2000/svg" viewBox="0 0 512.076 512.076"><path d="M498.639 395.039l-19.891-13.252c44.859-78.9 44.358-175.706-1.315-254.137S347.813 1.005 257.052 1.08c-4.713 0-8.533 3.82-8.533 8.533s3.82 8.533 8.533 8.533c84.458-.063 162.608 44.69 205.298 117.566 42.689 72.875 43.507 162.929 2.148 236.568l-69.538-46.362c-13.154-8.697-30.782-5.834-40.508 6.579l-30.157 38.818a12.912 12.912 0 01-16.546 3.482l-5.743-3.166c-19.038-10.377-42.726-23.296-90.453-71.04s-60.672-71.45-71.049-90.453l-3.149-5.743a12.92 12.92 0 013.413-16.606l38.792-30.182c12.412-9.725 15.279-27.351 6.588-40.508l-69.12-103.646C108.12.056 90.25-3.966 76.461 4.323L33.12 30.358A61.136 61.136 0 005.242 66.539c-15.607 56.866-3.866 155.008 140.706 299.597 62.976 62.976 117.12 100.693 162.901 122.027A237.32 237.32 0 0119.228 256.057c0-4.713-3.82-8.533-8.533-8.533s-8.533 3.82-8.533 8.533c.132 140.732 114.159 254.797 254.891 254.976a251.946 251.946 0 0077.653-12.237 210.08 210.08 0 0070.707 13.261 151.181 151.181 0 0040.107-5.239 61.079 61.079 0 0036.181-27.878l26.061-43.315c8.301-13.793 4.281-31.674-9.123-40.586zm-5.547 31.803l-26.001 43.341a44.101 44.101 0 01-26.061 20.198c-24.823 6.827-58.445 7.68-101.649-7.893a8.496 8.496 0 00-2.185-.853c-47.787-17.741-107.119-55.552-179.2-127.607C19.245 215.284 7.29 123.559 21.703 71.054a44.17 44.17 0 0120.198-26.061l43.341-26.001c5.983-3.6 13.739-1.855 17.604 3.959l37.547 56.371 31.514 47.266c3.774 5.707 2.534 13.356-2.85 17.579l-38.801 30.182c-11.808 9.029-15.18 25.366-7.91 38.332l3.081 5.598c10.906 20.002 24.465 44.885 73.967 94.379 49.502 49.493 74.377 63.053 94.37 73.958l5.606 3.089c12.965 7.269 29.303 3.898 38.332-7.91l30.182-38.801c4.224-5.381 11.87-6.62 17.579-2.85l103.637 69.12c5.815 3.85 7.574 11.593 3.992 17.578z"/></svg>