<svg data-name="Calque 1" xmlns="http://www.w3.org/2000/svg" viewBox="0 0 23.79 24.24"><path d="M23.35 7.9l-.55-.31-3.18-1.82a.26.26 0 0 1-.16-.27V3.85c0-.6-.19-.79-.8-.79H15.1a1 1 0 0 1-.45-.12L11.42 1.1 9.82.18a1 1 0 0 0-.46-.15c-.27 0-.43.22-.55.43l-.3.51-1.12 1.88a.27.27 0 0 1-.27.16H2.24c-.6 0-.78.19-.79.78v9a1.05 1.05 0 0 1-.13.49c-.27.48-.55.95-.81 1.42l-.36.6c-.27.47-.19.74.28 1l.24.14.62.35c.13.06.17.14.17.31v5.01a.52.52 0 0 0 .48.53 2.11 2.11 0 0 0 .35 0h9a1.09 1.09 0 0 1 .45.21l1.39.79.89.51a.76.76 0 0 0 .38.12.6.6 0 0 0 .51-.36l.09-.15c.17-.28.34-.56.49-.85a.32.32 0 0 1 .33-.2h2.81c.63 0 .81-.18.81-.8v-1.36-4.19a1 1 0 0 1 .13-.49l3.17-5.39.9-1.55a.82.82 0 0 0 .15-.59.85.85 0 0 0-.44-.44zM1.43 15.58l-.09-.05.09-.15zM9.6 1.33l2.93 1.68H8.62zm4.59 21.57l-.34-.2h.45zm4.13-16.16v14.8H2.61V4.18h15.71v2.56zm1.15 7.11V7.05l3 1.7zm-2.89-8.86H4.37c-.63 0-.82.18-.82.8v11.24c0 .62.19.8.8.8h12.21c.61 0 .8-.18.8-.79V5.74c0-.59-.19-.78-.78-.78zm-.38 11.72H4.74V6.11H16.2z" fill="none"/></svg>
