<svg xmlns="http://www.w3.org/2000/svg" width="164.845" height="134.55" viewBox="0 0 32.969 26.91">
  <defs>
    <style>
      .cls-1 {
        fill-rule: evenodd;
      }
    </style>
  </defs>
  <path id="Forme_7" data-name="Forme 7" class="cls-1" d="M929.458,7287.92a13.321,13.321,0,0,1-3.882,1.07,6.8,6.8,0,0,0,2.974-3.76,13.369,13.369,0,0,1-4.3,1.65,6.759,6.759,0,0,0-11.694,4.65,7.033,7.033,0,0,0,.173,1.55,19.19,19.19,0,0,1-13.936-7.1,6.821,6.821,0,0,0,2.092,9.07,6.763,6.763,0,0,1-3.063-.85v0.08a6.811,6.811,0,0,0,5.425,6.67,6.98,6.98,0,0,1-1.783.24,6.692,6.692,0,0,1-1.272-.13,6.77,6.77,0,0,0,6.316,4.72,13.537,13.537,0,0,1-8.4,2.91,12.326,12.326,0,0,1-1.614-.1,19.075,19.075,0,0,0,10.366,3.06c10.57,0,17.066-7.48,18.779-15.23a19.038,19.038,0,0,0,.46-4.1c0-.3,0-0.59-0.018-0.88A13.828,13.828,0,0,0,929.458,7287.92Z" transform="translate(-896.5 -7284.75)"/>
</svg>
