<svg xmlns="http://www.w3.org/2000/svg" width="164.845" height="134.55" viewBox="0 0 32.969 26.91"><path data-name="Forme 7" d="M32.958 3.17a13.321 13.321 0 0 1-3.882 1.07A6.8 6.8 0 0 0 32.05.48a13.369 13.369 0 0 1-4.3 1.65 6.759 6.759 0 0 0-11.694 4.65 7.033 7.033 0 0 0 .173 1.55 19.19 19.19 0 0 1-13.936-7.1 6.821 6.821 0 0 0 2.092 9.07 6.763 6.763 0 0 1-3.063-.85v.08a6.811 6.811 0 0 0 5.425 6.67 6.98 6.98 0 0 1-1.783.24 6.692 6.692 0 0 1-1.272-.13 6.77 6.77 0 0 0 6.316 4.72 13.537 13.537 0 0 1-8.4 2.91 12.326 12.326 0 0 1-1.614-.1A19.075 19.075 0 0 0 10.36 26.9c10.57 0 17.066-7.48 18.779-15.23a19.038 19.038 0 0 0 .46-4.1c0-.3 0-.59-.018-.88a13.828 13.828 0 0 0 3.377-3.52z" fill-rule="evenodd"/></svg>