<svg xmlns="http://www.w3.org/2000/svg" width="185.31" height="141.75" viewBox="0 0 37.062 28.35"><path data-name="Forme 8" d="M36.691 6.12s-.361-2.78-1.472-4a5.07 5.07 0 00-3.712-1.7C26.314.01 18.534.01 18.534.01h-.017s-7.786 0-12.973.41a5.075 5.075 0 00-3.715 1.7C.72 3.34.357 6.12.357 6.12s-.372 3.26-.372 6.52v3.05c0 3.26.372 6.52.372 6.52s.363 2.78 1.472 4a5.986 5.986 0 004.09 1.72c2.966.31 12.606.41 12.606.41s7.789-.02 12.982-.42a5.091 5.091 0 003.712-1.71c1.111-1.22 1.472-4 1.472-4s.373-3.26.373-6.52v-3.05c0-3.26-.373-6.52-.373-6.52zm-11.979 7.64L14.698 19.4V8.08l4.516 2.56z" fill-rule="evenodd"/></svg>