<svg xmlns="http://www.w3.org/2000/svg" width="185.31" height="141.75" viewBox="0 0 37.062 28.35">
  <defs>
    <style>
      .cls-1 {
        fill-rule: evenodd;
      }
    </style>
  </defs>
  <path id="Forme_8" data-name="Forme 8" class="cls-1" d="M998.441,7289.43s-0.361-2.78-1.472-4a5.07,5.07,0,0,0-3.712-1.7c-5.193-.41-12.973-0.41-12.973-0.41h-0.017s-7.786,0-12.973.41a5.075,5.075,0,0,0-3.715,1.7c-1.109,1.22-1.472,4-1.472,4s-0.372,3.26-.372,6.52V7299c0,3.26.372,6.52,0.372,6.52s0.363,2.78,1.472,4a5.986,5.986,0,0,0,4.09,1.72c2.966,0.31,12.606.41,12.606,0.41s7.789-.02,12.982-0.42a5.091,5.091,0,0,0,3.712-1.71c1.111-1.22,1.472-4,1.472-4s0.373-3.26.373-6.52v-3.05C998.814,7292.69,998.441,7289.43,998.441,7289.43Zm-11.979,7.64-10.014,5.64,0-8.68v-2.64l4.516,2.56Z" transform="translate(-961.75 -7283.31)"/>
</svg>
