<svg width="50px" height="50px" viewBox="0 0 50 50" version="1.1" xmlns="http://www.w3.org/2000/svg" xmlns:xlink="http://www.w3.org/1999/xlink">
  <defs>
      <rect id="path-1" x="0" y="0" width="50" height="50" rx="25"></rect>
  </defs>
  <g id="Page-1" stroke="none" stroke-width="1" fill="none" fill-rule="evenodd">
      <g id="AVIS" transform="translate(-410.000000, -1596.000000)">
          <g id="Group-2" transform="translate(370.000000, 662.000000)">
              <g id="1-copy-10" transform="translate(0.000000, 894.000000)">
                  <g id="Avatar" transform="translate(40.000000, 40.000000)">
                      <mask id="mask-2" fill="white">
                          <use xlink:href="#path-1"></use>
                      </mask>
                      <use id="Mask" fill="#000000" xlink:href="#path-1"></use>
                      <path d="M29.7571533,28.5494319 C30.1694569,29.1449705 30.0441573,29.9787244 29.4769224,30.4116009 C28.1164053,31.4506824 26.5687854,32 25,32 C23.4312146,32 21.8835947,31.4506824 20.5230776,30.4116009 C19.9558427,29.9787244 19.8305431,29.1449705 20.2428467,28.5494319 C20.6543036,27.9530045 21.4518189,27.8223416 22.0165139,28.2552181 C23.8909288,29.6853995 26.1090712,29.6853995 27.9834861,28.2552181 C28.5481811,27.8223416 29.3456964,27.9530045 29.7571533,28.5494319 Z M31,20 C32.104,20 33,20.896 33,22 C33,23.104 32.104,24 31,24 C29.896,24 29,23.104 29,22 C29,20.896 29.896,20 31,20 Z M19,20 C20.104,20 21,20.896 21,22 C21,23.104 20.104,24 19,24 C17.896,24 17,23.104 17,22 C17,20.896 17.896,20 19,20 Z" id="Combined-Shape" fill="#FFFFFF" mask="url(#mask-2)"></path>
                  </g>
              </g>
          </g>
      </g>
  </g>
</svg>
