<svg width="50px" height="50px" viewBox="0 0 50 50" version="1.1" xmlns="http://www.w3.org/2000/svg" xmlns:xlink="http://www.w3.org/1999/xlink">
    <g id="Page-1" stroke="none" stroke-width="1" fill="none" fill-rule="evenodd">
        <g id="AVIS" transform="translate(-800.000000, -2547.000000)">
            <g id="VOTRE-AVIS" transform="translate(376.000000, 2174.000000)">
                <g id="Choix-Avatars" transform="translate(293.000000, 373.000000)">
                    <g id="AVATAR-Content" transform="translate(131.000000, 0.000000)">
                        <path d="M25.0002,-0.0001 C38.8072,-0.0001 50.0002,11.1929 50.0002,24.9999 C50.0002,38.8079 38.8072,49.9999 25.0002,49.9999 C11.1932,49.9999 0.0002,38.8079 0.0002,24.9999 C0.0002,11.1929 11.1932,-0.0001 25.0002,-0.0001" id="Fill-1" fill="#000000"></path>
                        <path d="M28.1408,29.3279 C28.8788,29.3279 29.4768,29.9259 29.4768,30.6639 C29.4768,31.4019 28.8788,31.9999 28.1408,31.9999 L21.8588,31.9999 C21.1208,31.9999 20.5228,31.4019 20.5228,30.6639 C20.5228,29.9259 21.1208,29.3279 21.8588,29.3279 L28.1408,29.3279 Z M31.0002,19.9999 C32.1042,19.9999 33.0002,20.8959 33.0002,21.9999 C33.0002,23.1039 32.1042,23.9999 31.0002,23.9999 C29.8962,23.9999 29.0002,23.1039 29.0002,21.9999 C29.0002,20.8959 29.8962,19.9999 31.0002,19.9999 Z M19.0002,19.9999 C20.1042,19.9999 21.0002,20.8959 21.0002,21.9999 C21.0002,23.1039 20.1042,23.9999 19.0002,23.9999 C17.8962,23.9999 17.0002,23.1039 17.0002,21.9999 C17.0002,20.8959 17.8962,19.9999 19.0002,19.9999 Z" id="Combined-Shape" fill="#FFFFFF"></path>
                    </g>
                </g>
            </g>
        </g>
    </g>
</svg>
