
<svg width="50px" height="50px" viewBox="0 0 50 50" version="1.1" xmlns="http://www.w3.org/2000/svg" xmlns:xlink="http://www.w3.org/1999/xlink">
    <g id="Page-1" stroke="none" stroke-width="1" fill="none" fill-rule="evenodd">
        <g id="AVATAR-Decu">
            <path d="M25.0002,-0.0001 C38.8072,-0.0001 50.0002,11.1929 50.0002,24.9999 C50.0002,38.8079 38.8072,49.9999 25.0002,49.9999 C11.1932,49.9999 0.0002,38.8079 0.0002,24.9999 C0.0002,11.1929 11.1932,-0.0001 25.0002,-0.0001" id="Fill-1" fill="#000000"></path>
            <path d="M27.9836,35.745 C26.1086,34.314 23.8906,34.314 22.0166,35.745 C21.4516,36.178 20.6546,36.047 20.2426,35.451 C19.8306,34.855 19.9556,34.021 20.5236,33.589 C21.8836,32.55 23.4316,32 25.0006,32 C26.5686,32 28.1166,32.55 29.4766,33.589 C30.0446,34.021 30.1696,34.855 29.7566,35.451 C29.3456,36.047 28.5476,36.178 27.9836,35.745 M31.0006,24 C32.1046,24 33.0006,24.896 33.0006,26 C33.0006,27.104 32.1046,28 31.0006,28 C29.8966,28 29.0006,27.104 29.0006,26 C29.0006,24.896 29.8966,24 31.0006,24 M19.0006,24 C20.1046,24 21.0006,24.896 21.0006,26 C21.0006,27.104 20.1046,28 19.0006,28 C17.8966,28 17.0006,27.104 17.0006,26 C17.0006,24.896 17.8966,24 19.0006,24" id="Fill-4" fill="#FFFFFF"></path>
        </g>
    </g>
</svg>
