
<svg width="23px" height="22px" viewBox="0 0 23 22" version="1.1" xmlns="http://www.w3.org/2000/svg" xmlns:xlink="http://www.w3.org/1999/xlink">
    <g id="Page-1" stroke="none" stroke-width="1" fill="none" fill-rule="evenodd">
        <g id="AVIS" transform="translate(-687.000000, -1610.000000)" fill="#00F6D6">
            <g id="Group-2" transform="translate(370.000000, 662.000000)">
                <g id="1-copy-10" transform="translate(0.000000, 894.000000)">
                    <g id="Avis" transform="translate(246.000000, 48.000000)">
                        <g id="Group-21" transform="translate(71.000000, 6.000000)">
                            <path d="M12.1563083,0.473509363 L14.6165138,7.78493903 L22.310205,7.87630262 C22.9772407,7.88098793 23.2505969,8.72785811 22.7214074,9.12142433 L16.5475298,13.7282575 L18.838348,21.0994249 C19.0346037,21.7307708 18.3220085,22.2531831 17.7788008,21.8689875 L11.4997862,17.4073989 L5.22077162,21.8689875 C4.67873204,22.2531831 3.9661369,21.7307708 4.1635608,21.0994249 L6.45437895,13.7282575 L0.279333174,9.12142433 C-0.251024522,8.72785811 0.0234998362,7.88098793 0.685862862,7.87630262 L8.38422678,7.78493903 L10.8432641,0.473509363 C11.0535381,-0.157836454 11.9472025,-0.157836454 12.1563083,0.473509363" id="Fill-1-Copy-4"></path>
                        </g>
                    </g>
                </g>
            </g>
        </g>
    </g>
</svg>
