<svg xmlns="http://www.w3.org/2000/svg" width="148" height="41" viewBox="0 0 148 41">
  <defs>
    <style>
      .cls-1 {
        fill-rule: evenodd;
      }
    </style>
  </defs>
  <path id="logo" data-name="logo" class="cls-1" d="M348.5,52c-10.3,0-18.366,8.778-18.366,19.987,0,11.042,8,19.687,18.223,19.687,10.3,0,18.365-8.777,18.365-19.987C366.72,60.646,358.717,52,348.5,52Zm0.115,35.722c-8.061,0-14.376-6.825-14.376-15.948,0-8.969,6.256-15.666,14.242-15.666,8.061,0,14.376,6.824,14.376,15.948C362.855,81.026,356.6,87.723,348.613,87.723Zm0.016-28.072c-6.355,0-11.526,5.485-11.526,12.225S342.274,84.1,348.629,84.1s11.338-5.484,11.338-12.226S354.985,59.651,348.629,59.651Zm-5.348,16.021a1.345,1.345,0,0,1-1.3-1.021,7.945,7.945,0,0,1,.727-5.8,7.357,7.357,0,0,1,4.461-3.6,1.34,1.34,0,0,1,1.652.946,1.364,1.364,0,0,1-.933,1.675,5.007,5.007,0,0,0-3.31,6.1,1.362,1.362,0,0,1-.963,1.657A1.316,1.316,0,0,1,343.281,75.672Zm-64.924,3.583a11.522,11.522,0,0,0,8,2.913c5.125,0,8.361-3.548,8.361-7.4,0-4.818-4.072-6.984-7.6-8.441-2.944-1.233-4.289-2.428-4.289-4.184a2.92,2.92,0,0,1,3.2-2.614c2,0,4.762,1.868,5.053,2.054a0.944,0.944,0,0,0,1.272-.447l1.381-2.129a0.941,0.941,0,0,0-.218-1.233,12.589,12.589,0,0,0-7.27-2.5c-5.78,0-8.179,3.847-8.179,7.172,0,4.407,3.417,6.649,6.834,8.068,3.053,1.27,4.616,2.577,4.616,4.482a3.064,3.064,0,0,1-3.308,2.876c-2.362,0-5.307-2.2-5.489-2.316a0.829,0.829,0,0,0-1.236.261l-1.308,2.316A0.749,0.749,0,0,0,278.357,79.255Zm18.724,1.831a0.725,0.725,0,0,0,.69.709h3.017a0.662,0.662,0,0,0,.764-0.709V73.167a3.2,3.2,0,0,1,3.162-2.652c1.745,0,2.872,1.307,2.872,3.361v7.209a0.7,0.7,0,0,0,.691.709h2.944a0.725,0.725,0,0,0,.691-0.709V73.915c0-3.773-1.89-7.433-6.507-7.433a6.588,6.588,0,0,0-3.853,1.232V56.361a0.725,0.725,0,0,0-.691-0.71h-3.09a0.725,0.725,0,0,0-.69.71V81.086Zm16.324-6.8a7.46,7.46,0,1,0,7.452-7.806A7.717,7.717,0,0,0,313.4,74.288Zm3.962,0a3.5,3.5,0,1,1,6.98,0A3.507,3.507,0,1,1,317.367,74.288Zm99.151-11.78a4.74,4.74,0,1,0,4.733-4.781A4.756,4.756,0,0,0,416.518,62.508Zm1.028,0a3.7,3.7,0,1,1,3.7,3.733A3.713,3.713,0,0,1,417.546,62.508Zm1.938,2.165a0.251,0.251,0,0,0,.251.252h0.646a0.251,0.251,0,0,0,.25-0.252V63.252h0.686l0.58,1.488a0.286,0.286,0,0,0,.237.186h0.712a0.245,0.245,0,0,0,.224-0.359l-0.606-1.381a1.542,1.542,0,0,0,.936-1.474,1.6,1.6,0,0,0-1.622-1.647h-2.043a0.252,0.252,0,0,0-.251.252v4.356Zm1.108-2.4V61.18h1.041a0.521,0.521,0,0,1,.541.544,0.529,0.529,0,0,1-.541.544h-1.041ZM370.108,77.35c0,3.026,1.236,4.818,4.035,4.818a13.4,13.4,0,0,0,4.325-.97,0.682,0.682,0,0,0,.4-0.9l-0.727-2.353a0.563,0.563,0,0,0-.8-0.411,5.725,5.725,0,0,1-1.781.411,0.99,0.99,0,0,1-1.127-1.2V70.777h3.2a0.7,0.7,0,0,0,.691-0.71v-2.5a0.678,0.678,0,0,0-.691-0.71h-3.2V62.672a0.693,0.693,0,0,0-.654-0.71L370.8,62a0.725,0.725,0,0,0-.69.71v4.146h-1.236a0.671,0.671,0,0,0-.655.71v2.5a0.694,0.694,0,0,0,.655.71h1.236V77.35Zm13.2-15.8a2.577,2.577,0,0,0,0-5.153A2.579,2.579,0,0,0,383.305,61.551ZM381.16,81.086a0.725,0.725,0,0,0,.691.709h3.017a0.726,0.726,0,0,0,.691-0.709V67.565a0.7,0.7,0,0,0-.691-0.71h-3.017a0.7,0.7,0,0,0-.691.71V81.086Zm6.944,0a0.726,0.726,0,0,0,.691.709h9.2a0.7,0.7,0,0,0,.691-0.709v-2.54a0.678,0.678,0,0,0-.691-0.709h-3.926V77.724l5.271-9.86a0.664,0.664,0,0,0-.618-1.009h-9.6a0.671,0.671,0,0,0-.654.71v2.577a0.694,0.694,0,0,0,.654.71h4.144v0.074L388.1,80.712v0.374Zm17.706-.337-5.162,11.243A0.667,0.667,0,0,0,401.266,93h3.126a0.728,0.728,0,0,0,.618-0.448l11.123-24.726a0.638,0.638,0,0,0-.618-0.971h-2.908a0.776,0.776,0,0,0-.872.411l-3.635,8.44h-0.037l-3.671-8.44a0.653,0.653,0,0,0-.618-0.411H400.5a0.658,0.658,0,0,0-.618.971Z" transform="translate(-278 -52)"/>
</svg>
