<svg id="Layer_1" data-name="Layer 1" xmlns="http://www.w3.org/2000/svg" viewBox="0 0 1920 527"><defs><style>.cls-1{fill:#00f6d6;}.cls-2{fill:#fdffff;}</style></defs><title>fondheader-reservation [Converti]</title><path class="cls-1" d="M1,.5H1921q0,209.16,0,418.32c-186.71,46.33-377.46,75.24-569,92Q1198.29,524,1044,526.68c-24.52.66-49.06.43-73.58.82H920.63l-4.67-.3q-145.15-1.35-290-11.93C415.55,499.62,205.88,469.62,1,418.81ZM1136.22,157.73a13.51,13.51,0,0,0-11,11c-1.46,7.36,4.36,15,11.84,15.64,7.86,1.1,15.45-6,14.9-13.91C1151.89,162.62,1143.92,156.16,1136.22,157.73Zm-491.7,18.13c1.88,1.87,3.76,3.74,5.63,5.63-1.86,1.91-3.75,3.78-5.64,5.64l2.85,2.86q2.79-2.85,5.65-5.64l5.65,5.64c.93-1,1.87-1.89,2.82-2.83-1.87-1.89-3.76-3.77-5.64-5.65,1.86-1.9,3.74-3.77,5.64-5.64-.94-1-1.89-1.91-2.81-2.86-1.9,1.88-3.78,3.77-5.67,5.65-1.9-1.88-3.78-3.77-5.67-5.64C646.38,174,645.45,174.91,644.52,175.86Zm690,20c1.88,1.87,3.76,3.74,5.63,5.64l-5.63,5.65c.93.94,1.87,1.89,2.84,2.83q2.79-2.83,5.64-5.63c1.89,1.86,3.76,3.75,5.65,5.63.94-.94,1.88-1.87,2.85-2.8-1.89-1.9-3.78-3.78-5.65-5.67q2.78-2.85,5.63-5.65c-1-1-1.9-1.9-2.84-2.85-1.88,1.89-3.75,3.77-5.64,5.64-1.91-1.86-3.78-3.76-5.66-5.64C1336.37,194,1335.45,194.91,1334.52,195.86Zm222.87,39.31a13.47,13.47,0,1,0,17,8.8C1572.36,237,1564.22,232.77,1557.39,235.17ZM871,241.5q0,4,0,8h-8c0,1.33,0,2.66,0,4h8q0,4,0,8h4c0-2.67,0-5.33,0-8h8c0-1.34,0-2.67,0-4h-8c0-2.67,0-5.34,0-8Zm-528.25,11c0,2.66,0,5.32,0,8h-8v4c2.66,0,5.33,0,8,0,0,2.66,0,5.33,0,8h4c0-2.66,0-5.32,0-8l8,0c0-1.33,0-2.66,0-4l-8,0c0-2.66,0-5.32,0-8Zm147.43,48.23a13.47,13.47,0,0,0,1.76,26.72c7.59.55,14.53-6.4,14-14C505.88,305.6,497.89,299.13,490.18,300.73ZM1451,381.5c0,2.66,0,5.33,0,8h-8c0,1.33,0,2.66,0,4h8c0,2.66,0,5.32,0,8h4q0-4,0-8h8c0-1.34,0-2.67,0-4h-8q0-4,0-8Zm-414.73,56.22a13.47,13.47,0,0,0,1.75,26.74c7.55.48,14.43-6.42,13.94-14C1051.9,442.65,1044,436.18,1036.27,437.72ZM480.52,454.87c1.88,1.86,3.76,3.73,5.62,5.63-1.85,1.9-3.74,3.77-5.63,5.63l2.85,2.86q2.81-2.85,5.64-5.65c1.89,1.87,3.76,3.74,5.63,5.63,1-.93,1.91-1.87,2.88-2.79q-2.83-2.83-5.66-5.68c1.87-1.9,3.76-3.78,5.64-5.67L494.64,452c-1.88,1.88-3.75,3.77-5.65,5.63L483.33,452C482.38,453,481.45,453.92,480.52,454.87Z" transform="translate(-1 -0.5)"/><path class="cls-1" d="M1136.23,161.8c6.93-2.08,13.92,5.6,11.22,12.31-2,6.72-11.79,8.6-16.12,3.08C1126.65,172.25,1129.57,163.14,1136.23,161.8Z" transform="translate(-1 -0.5)"/><path class="cls-1" d="M1559.26,238.79a9.48,9.48,0,1,1-7.11,10.76A9.54,9.54,0,0,1,1559.26,238.79Z" transform="translate(-1 -0.5)"/><path class="cls-1" d="M490.18,304.81c7-2.13,14,5.61,11.26,12.35-2.05,6.7-11.84,8.53-16.14,3C480.67,315.21,483.57,306.18,490.18,304.81Z" transform="translate(-1 -0.5)"/><path class="cls-1" d="M1036.25,441.8c6.92-2.07,13.89,5.6,11.21,12.3-2,6.73-11.8,8.61-16.14,3.08C1026.65,452.23,1029.58,443.13,1036.25,441.8Z" transform="translate(-1 -0.5)"/><path class="cls-2" d="M1136.22,157.73c7.7-1.57,15.67,4.89,15.74,12.75.55,7.91-7,15-14.9,13.91-7.48-.6-13.3-8.28-11.84-15.64A13.51,13.51,0,0,1,1136.22,157.73Zm0,4.07c-6.66,1.34-9.58,10.45-4.9,15.39,4.33,5.52,14.11,3.64,16.12-3.08C1150.15,167.4,1143.16,159.72,1136.23,161.8Z" transform="translate(-1 -0.5)"/><path class="cls-2" d="M644.52,175.86c.93-1,1.86-1.9,2.81-2.84,1.89,1.87,3.77,3.76,5.67,5.64,1.89-1.88,3.77-3.77,5.67-5.65.92,1,1.87,1.91,2.81,2.86-1.9,1.87-3.78,3.74-5.64,5.64,1.88,1.88,3.77,3.76,5.64,5.65-1,.94-1.89,1.88-2.82,2.83L653,184.35q-2.87,2.79-5.65,5.64l-2.85-2.86c1.89-1.86,3.78-3.73,5.64-5.64C648.28,179.6,646.4,177.73,644.52,175.86Z" transform="translate(-1 -0.5)"/><path class="cls-2" d="M1334.52,195.86c.93-1,1.85-1.9,2.82-2.85,1.88,1.88,3.75,3.78,5.66,5.64,1.89-1.87,3.76-3.75,5.64-5.64.94,1,1.88,1.9,2.84,2.85q-2.85,2.8-5.63,5.65c1.87,1.89,3.76,3.77,5.65,5.67-1,.93-1.91,1.86-2.85,2.8-1.89-1.88-3.76-3.77-5.65-5.63q-2.85,2.79-5.64,5.63c-1-.94-1.91-1.89-2.84-2.83l5.63-5.65C1338.28,199.6,1336.4,197.73,1334.52,195.86Z" transform="translate(-1 -0.5)"/><path class="cls-2" d="M1557.39,235.17c6.83-2.4,15,1.86,17,8.8a13.47,13.47,0,1,1-17-8.8Zm1.87,3.62a9.48,9.48,0,1,0,11.6,7.71A9.53,9.53,0,0,0,1559.26,238.79Z" transform="translate(-1 -0.5)"/><path class="cls-2" d="M871,241.5h4c0,2.66,0,5.33,0,8h8c0,1.33,0,2.66,0,4h-8c0,2.66,0,5.32,0,8h-4q0-4,0-8h-8c0-1.34,0-2.67,0-4h8Q871,245.5,871,241.5Z" transform="translate(-1 -0.5)"/><path class="cls-2" d="M342.75,252.5h4c0,2.66,0,5.32,0,8l8,0c0,1.32,0,2.65,0,4l-8,0c0,2.66,0,5.32,0,8h-4c0-2.66,0-5.33,0-8-2.67,0-5.34,0-8,0v-4h8C342.73,257.82,342.74,255.16,342.75,252.5Z" transform="translate(-1 -0.5)"/><path class="cls-2" d="M490.18,300.73c7.71-1.6,15.7,4.87,15.78,12.74.51,7.58-6.43,14.53-14,14a13.47,13.47,0,0,1-1.76-26.72Zm0,4.08c-6.61,1.37-9.51,10.4-4.88,15.34,4.3,5.54,14.09,3.71,16.14-3C504.19,310.42,497.14,302.68,490.18,304.81Z" transform="translate(-1 -0.5)"/><path class="cls-2" d="M1451,381.5h4q0,4,0,8h8c0,1.33,0,2.66,0,4h-8q0,4,0,8h-4c0-2.67,0-5.33,0-8h-8c0-1.34,0-2.67,0-4h8C1451,386.83,1451,384.16,1451,381.5Z" transform="translate(-1 -0.5)"/><path class="cls-2" d="M1036.27,437.72c7.7-1.54,15.63,4.93,15.69,12.78.49,7.54-6.39,14.44-13.94,14a13.47,13.47,0,0,1-1.75-26.74Zm0,4.08c-6.67,1.33-9.6,10.43-4.93,15.38,4.34,5.53,14.13,3.65,16.14-3.08C1050.14,447.4,1043.17,439.73,1036.25,441.8Z" transform="translate(-1 -0.5)"/><path class="cls-2" d="M480.52,454.87c.93-.95,1.86-1.91,2.81-2.85l5.66,5.63c1.9-1.86,3.77-3.75,5.65-5.63l2.85,2.81c-1.88,1.89-3.77,3.77-5.64,5.67q2.82,2.85,5.66,5.68c-1,.92-1.92,1.86-2.88,2.79-1.87-1.89-3.74-3.76-5.63-5.63q-2.83,2.81-5.64,5.65l-2.85-2.86c1.89-1.86,3.78-3.73,5.63-5.63C484.28,458.6,482.4,456.73,480.52,454.87Z" transform="translate(-1 -0.5)"/></svg>