<svg xmlns="http://www.w3.org/2000/svg" width="248" height="87" viewBox="0 0 248 87">
  <defs>
    <style>
      .cls-1 {
        fill-rule: evenodd;
      }
    </style>
  </defs>
  <path id="Le_Blog_copie" data-name="Le Blog !  copie" class="cls-1" d="M856.786,6338.84c-0.234.12-.623,0.3-1.168,0.53s-1.051.46-1.518,0.68-1.021.45-1.663,0.71-1.237.46-1.781,0.61-1.1.31-1.664,0.45a7.179,7.179,0,0,1-1.605.2,3.263,3.263,0,0,1-1.285-.23,2.041,2.041,0,0,0-.525-0.18,0.878,0.878,0,0,0-.058-0.53,12.281,12.281,0,0,1,.175-3.59,60.046,60.046,0,0,1,1.284-8.36q4.845-22.365,20.666-49.44c0.234-.47-0.2-1.14-1.284-2-1.168-.91-1.849-1.16-2.043-0.77a224.994,224.994,0,0,0-11.384,22.49q-1.635,3.765-2.248,5.15t-2.189,5.15q-1.576,3.765-2.248,5.79c-0.448,1.36-1.031,3.19-1.751,5.51a49.786,49.786,0,0,0-1.518,5.94q-0.438,2.475-.759,5.51a33.291,33.291,0,0,0-.146,5.68,13.846,13.846,0,0,0,.175,1.41q2.51,12.945,34.035-6.36c0.155-.12.029-0.45-0.379-1a6.045,6.045,0,0,0-1.548-1.44,1.35,1.35,0,0,0-1.4-.32,124.726,124.726,0,0,1-16.17,8.41h0Zm37.012-16.36a16.185,16.185,0,0,1-5.108.97,11.555,11.555,0,0,1-4.992-.88,5.055,5.055,0,0,1-2.977-2.91c1.439-.87,2.519-1.51,3.24-1.95s1.8-1.13,3.24-2.12a29.582,29.582,0,0,0,3.386-2.59,19.832,19.832,0,0,0,2.422-2.7,8.356,8.356,0,0,0,1.548-3.12,2.585,2.585,0,0,0-.789-3.01,4.148,4.148,0,0,0-3.415-.47q-3.795.825-8.289,6.07a22.146,22.146,0,0,0-2.832,4.12,15.21,15.21,0,0,0-1.605,4.53,9.834,9.834,0,0,0,.058,4.15,5,5,0,0,0,2.452,3.06,10.582,10.582,0,0,0,5.312,1.27,22.21,22.21,0,0,0,11.822-3.39,49.633,49.633,0,0,0,10.829-8.68,0.966,0.966,0,0,0,.176-0.24c0.778-.9.913-1.53,0.408-1.88-0.428-.31-1.051-0.04-1.868.82a34.274,34.274,0,0,1-13.018,8.95h0Zm-9.6-12.57a8.742,8.742,0,0,1,3.824-2.79,3.334,3.334,0,0,1,2.423-.06,1.245,1.245,0,0,1,.554,1.44,4.313,4.313,0,0,1-1.226,2.15,20.9,20.9,0,0,1-2.918,2.62c-1.168.88-2.16,1.58-2.978,2.09s-1.946,1.18-3.386,2a8.823,8.823,0,0,1,.876-2.94A17.349,17.349,0,0,1,884.194,6309.91Zm79.832-14.92a17.126,17.126,0,0,0,2.6-4.32,15.2,15.2,0,0,0,1.139-4.74,12.709,12.709,0,0,0-.584-4.8,12.231,12.231,0,0,0-2.51-4.38q-6.13-7.005-18.682-3.71a72.617,72.617,0,0,0-19.031,8.41c-0.156.08-.029,0.4,0.379,0.95a6.041,6.041,0,0,0,1.547,1.44,1.439,1.439,0,0,0,1.46.32,69.446,69.446,0,0,1,18.681-8.18c1.323-.35,2.481-0.63,3.474-0.82a29.027,29.027,0,0,1,3.648-.45,10.5,10.5,0,0,1,3.853.39,5.59,5.59,0,0,1,2.744,1.82,7.219,7.219,0,0,1,1.43,2.86,9.8,9.8,0,0,1,.292,3.35,16.781,16.781,0,0,1-.613,3.27,16.452,16.452,0,0,1-1.167,2.94q-6.247,11.25-26.913,18.48,4.32-9.945,11.034-23.66a1.269,1.269,0,0,0-.555-1.29,6.455,6.455,0,0,0-1.722-1.3q-0.935-.465-1.109-0.12-8,16.425-12.9,28.02c-1.284.36-2.414,0.71-3.386,1.06-0.156.08-.175,0.26-0.058,0.53a4.414,4.414,0,0,0,1.926,2,261.052,261.052,0,0,0-9.632,26.78,1.279,1.279,0,0,0,.525,1.24,6.4,6.4,0,0,0,1.635,1.18q-5.663.7-12.376,1.06c-0.195,0-.039.33,0.467,1,1.012,1.29,1.868,1.92,2.568,1.88q27.379-1.17,42.266-11.06a24.012,24.012,0,0,0,7.969-8.57,13.909,13.909,0,0,0,1.751-5.53,13.261,13.261,0,0,0-.846-5.86,10.871,10.871,0,0,0-3.62-4.8,16.439,16.439,0,0,0-5.312-2.73,24,24,0,0,0-6.013-.94q10.274-5.07,15.645-11.72h0Zm-41.156,47.09a278.813,278.813,0,0,1,10.916-29.66c0.818-.28,1.654-0.55,2.51-0.83a60.338,60.338,0,0,1,12.961-2q1.808,0,3.152.06a15.241,15.241,0,0,1,2.89.44,8.266,8.266,0,0,1,2.6,1.09,6.043,6.043,0,0,1,1.809,2,6.949,6.949,0,0,1,.876,3.12,13.906,13.906,0,0,1-1.109,6.74,18.331,18.331,0,0,1-4.028,5.86q-10.1,10.125-32.575,13.18h0Zm69.936-25.34a49.525,49.525,0,0,1-4.086,4.3,25.394,25.394,0,0,1-4.758,3.65,9.616,9.616,0,0,1-4.846,1.32,6.183,6.183,0,0,1-4.524-2q-2.686-2.82-2.627-8.06a3.07,3.07,0,0,0,.467-0.47,132.817,132.817,0,0,0,13.836-17.72,3.915,3.915,0,0,0,.233-0.41q2.8-4.77,2.977-8.13,0.293-4.17-4.962-2.06a11.849,11.849,0,0,0-2.977,1.94q-5.079,4.485-9.4,13.84-5.022,10.89-4.437,18.6,0.642,8.295,8.232,8.59,10.859,0.36,23.292-17.83a3.26,3.26,0,0,0,.526-1.06q0.117-.825-1.284-0.36a5,5,0,0,0-2.686,1.95C994.888,6314.12,993.9,6315.43,992.806,6316.74Zm-14.507-20.1c0.1-.16.263-0.43,0.5-0.82s0.447-.73.642-1,0.438-.62.73-1.03a12.264,12.264,0,0,1,.817-1.06c0.253-.3.535-0.6,0.847-0.92a4.642,4.642,0,0,1,.9-0.73,3.444,3.444,0,0,1,.846-0.38,1.421,1.421,0,0,1,.817,0,1.732,1.732,0,0,1,.76.47,1.4,1.4,0,0,1,.466.97,3.215,3.215,0,0,1-.175,1.32q-0.234.705-.525,1.41a9.238,9.238,0,0,1-.817,1.53c-0.351.55-.653,1.01-0.9,1.39s-0.536.77-.847,1.21-0.506.7-.584,0.82a122.871,122.871,0,0,1-9.34,12.07,51.362,51.362,0,0,1,5.546-14.72C978.1,6296.97,978.2,6296.8,978.3,6296.64Zm36.781,18.25a35.83,35.83,0,0,1-3.33,1.76,17.049,17.049,0,0,1-4.06,1.47c1.25-2.54.97-4.72-.82-6.53a4.636,4.636,0,0,0-2.8-1.32,6.693,6.693,0,0,0-3.24.38,8.381,8.381,0,0,0-2.8,1.77,5.657,5.657,0,0,0-1.663,2.59,4.773,4.773,0,0,0-.526.47c-0.078.11-.156,0.23-0.234,0.35q-3.852,4.995-4.2,8.36-0.349,3.465,4.2,3a13.325,13.325,0,0,0,4.673-1.85,21.615,21.615,0,0,0,4.96-3.92q5.025-.945,12.61-6a2.334,2.334,0,0,0,.35-0.3,4.112,4.112,0,0,0,1.28-2.29c0.08-.63-0.31-0.65-1.16-0.06C1016.84,6313.75,1015.76,6314.46,1015.08,6314.89Zm-18.538,2.94c0.077,0.2.175,0.41,0.292,0.65a6.578,6.578,0,0,0,2.393,2.35,6.289,6.289,0,0,0,3.213.89,9.929,9.929,0,0,1-3.184,2.09,4.143,4.143,0,0,1-3.181.08q-2.977-1.17.467-6.06h0Zm8,0.47a6.324,6.324,0,0,1-2.1-.59,7.314,7.314,0,0,1-2.19-1.7,2.53,2.53,0,0,1-.848-2.24,0.554,0.554,0,0,1,.526-0.44,2.455,2.455,0,0,1,1.112.09,9.71,9.71,0,0,1,1.28.44,5.085,5.085,0,0,1,1.2.68,2.307,2.307,0,0,1,.73.76,3.92,3.92,0,0,1,.35,2.94h0a0.053,0.053,0,0,0-.06.06h0Zm30.41,2q1.53-5.235,2.81-10.59a1.5,1.5,0,0,0-.65-1.18,7.038,7.038,0,0,0-1.63-1.24c-0.58-.31-0.95-0.35-1.11-0.11-0.62.94-1.05,1.61-1.28,2a7.422,7.422,0,0,0-4.15-2.47,6.375,6.375,0,0,0-4.06.61,17.43,17.43,0,0,0-4.05,3.09c-0.78.75-1.42,1.38-1.93,1.89s-1.21,1.27-2.1,2.29a19.171,19.171,0,0,0-2.1,2.8,19.754,19.754,0,0,0-1.4,2.8,6.478,6.478,0,0,0-.56,2.94,5,5,0,0,0,.91,2.59q5.835,8.295,17.33-6.12-0.69,2.355-1.4,4.71a50.456,50.456,0,0,0-5.95,5.65c-0.2.19-.51,0.53-0.94,1-1.82,2-3.28,3.65-4.37,4.97s-2.44,3.1-4.03,5.36a21.214,21.214,0,0,0-3.27,6.5,10.959,10.959,0,0,0-.18,5.77,7.9,7.9,0,0,0,2.4,3.97,5.418,5.418,0,0,0,3.94,1.47,4.919,4.919,0,0,0,3.76-2.09,35.477,35.477,0,0,0,2.92-4.32,40.6,40.6,0,0,0,2.6-5.56q1.26-3.24,1.84-4.95t1.87-5.88q1.275-4.185,1.52-5.01c0.54-1.65,1.07-3.31,1.57-5a84.356,84.356,0,0,1,20.78-15.01,1.616,1.616,0,0,0,.94-1.3c0.08-.59-0.39-0.64-1.4-0.17a154.071,154.071,0,0,0-18.63,10.59h0Zm-20.6,35.2c-0.39-1.14-.24-2.78.46-4.94a29.435,29.435,0,0,1,3.36-6.8,77.465,77.465,0,0,1,5.52-7.27c1.09-1.33,2.22-2.67,3.38-4q-0.93,3.345-1.4,4.88c-0.31,1.02-.83,2.56-1.54,4.62a50.588,50.588,0,0,1-1.99,4.95c-0.6,1.23-1.35,2.6-2.25,4.09a19.6,19.6,0,0,1-2.86,3.76c-1.44,1.54-2.33,1.77-2.68.71h0Zm2.1-30.02c-0.31-.23-0.2-1.06.35-2.47a21.208,21.208,0,0,1,3.79-5.95c0.12-.15.28-0.34,0.47-0.55s0.47-.53.82-0.95,0.7-.8,1.05-1.17,0.76-.81,1.22-1.3,0.92-.93,1.35-1.32a17.685,17.685,0,0,1,1.37-1.15,14.128,14.128,0,0,1,1.37-.94,6.826,6.826,0,0,1,1.23-.59,1.989,1.989,0,0,1,1.05-.12,1.408,1.408,0,0,1,.81.5,5.712,5.712,0,0,0,1.06.83,83.378,83.378,0,0,1-6.6,8.88,24.072,24.072,0,0,1-6.89,5.66C1017.58,6325.5,1016.76,6325.72,1016.45,6325.48Zm60.19-24.95a133.639,133.639,0,0,0-6.89,19.36,0.586,0.586,0,0,0,.26.5,2.376,2.376,0,0,0,.7.5c0.25,0.12.4,0.14,0.44,0.06,0.97-1.69,1.93-3.42,2.89-5.21s2.11-3.98,3.47-6.59,2.3-4.37,2.8-5.27q0.99-1.89,2.37-4.27,1.365-2.385,2.51-4.26c0.76-1.26,1.57-2.67,2.45-4.24s1.64-3.02,2.31-4.36a1.433,1.433,0,0,0-.59-1.38,6.306,6.306,0,0,0-1.84-1.44c-0.68-.36-1.12-0.42-1.31-0.18A89.267,89.267,0,0,0,1076.64,6300.53Zm-9.58,25.36a2.779,2.779,0,0,0-.23,1.36,1.606,1.606,0,0,0,.09.5,5.472,5.472,0,0,0,.2.56,1.291,1.291,0,0,1,.12.47,2.138,2.138,0,0,0,.29.41c0.5,0.51.8,0.63,0.87,0.35a5.43,5.43,0,0,1,.82-0.76,5.16,5.16,0,0,0,.35-0.41c0.16-.2.27-0.34,0.35-0.42a15.27,15.27,0,0,1,1.93-1.35c0.19-.16.09-0.48-0.32-0.97a6.784,6.784,0,0,0-1.52-1.32,1.846,1.846,0,0,0-1.31-.47,2.986,2.986,0,0,0-1.64,2.05h0Z" transform="translate(-842 -6272)"/>
</svg>
