
<svg width="116px" height="129px" viewBox="0 0 116 129" version="1.1" xmlns="http://www.w3.org/2000/svg" xmlns:xlink="http://www.w3.org/1999/xlink">
    <g id="Page-1" stroke="none" stroke-width="1" fill="none" fill-rule="evenodd">
        <g id="Illustr-Photo-unité">
            <polygon id="Fill-1" fill="#00F6E5" points="0.6561 30.3407 18.0371 128.9147 115.6181 111.7087 98.2381 13.1347"></polygon>
            <path d="M75.5446,100.3348 C76.7546,98.7938 78.0236,97.2928 78.8256,95.5158 C79.7916,93.3778 79.8966,91.1648 80.4026,88.9338 C82.9526,77.6948 81.0656,66.5328 79.5616,55.3928 C79.3636,53.9318 79.0986,52.4848 78.9346,51.1098 C78.5876,48.2168 79.5606,44.7128 78.6846,41.9648 C77.4256,38.0158 75.1226,40.7528 73.8786,44.3628 C73.8426,44.3218 73.8116,44.2758 73.7746,44.2348 C73.5136,43.9448 73.2306,43.6558 72.9256,43.4008 C72.0826,40.8208 70.6976,38.8488 68.7796,39.7248 C67.1996,40.4468 66.8056,43.4748 67.0476,46.5338 C66.2866,45.3618 65.5486,44.3338 65.1456,43.7078 C63.8206,41.6468 63.1116,39.2118 61.8136,42.3998 C60.3986,45.8718 64.2846,51.4378 65.3696,54.5598 C67.1976,59.8238 69.5796,64.4598 69.7356,70.1628 C69.9026,76.2548 66.9536,97.6938 56.9466,87.7128 C50.6646,81.4468 51.3056,74.4918 52.2686,66.5438 C52.8716,61.5628 52.7166,55.5798 51.2846,50.7718 C50.0956,46.7748 47.4226,42.9978 43.5156,41.5428 C39.0576,39.8848 35.3566,40.4008 32.5176,42.2238 C26.4276,46.1308 24.2916,56.0468 27.1066,63.3958 C29.8716,70.6188 41.3666,73.4818 39.8306,82.6408 C39.4906,84.6678 37.7606,87.2358 36.8696,89.1238 C34.9346,93.2288 33.0106,97.1888 32.5536,101.7738 C32.0946,106.3768 32.5786,111.1188 32.5406,115.7678 C41.4906,115.5018 51.0906,113.4968 59.3986,111.4048 C66.5596,109.6018 74.2236,108.8468 81.0376,106.3428 C79.4716,104.2068 77.6256,102.1358 75.5446,100.3348" id="Fill-2" fill="#000100"></path>
            <path d="M35.2868,61.9525 C36.2938,61.0045 54.9088,50.0225 57.1138,48.7305 C60.6228,57.6385 58.5268,63.0885 50.2478,66.8515 C45.0838,69.1995 39.3478,67.8515 35.2868,61.9525" id="Fill-4" fill="#FFFFFF"></path>
            <path d="M0.8988,27.7061 C1.9358,26.3921 3.7508,25.9691 5.3168,26.0771 C8.8688,26.3201 11.3238,28.3891 13.6088,30.4241 C14.8428,31.5221 18.2248,35.1321 14.7298,36.3371 C12.7848,37.0091 10.1748,36.3311 8.4958,35.7461 C6.1388,34.9251 0.5568,33.2461 0.0388,30.3441 C-0.1022,29.5571 0.1308,28.6801 0.8988,27.7061 Z M36.5333,10.2168 C41.2093,9.7058 40.6423,16.6398 39.5483,19.6358 C38.6073,22.2158 34.7843,28.3708 31.6503,26.7688 C30.1223,25.9868 30.2363,23.6588 30.2913,22.0358 C30.4013,18.8568 31.3353,13.9638 33.7683,11.5848 C34.5343,10.8348 35.4493,10.3348 36.5333,10.2168 Z M12.2664,5.5185 C14.9994,5.5915 16.5244,7.7825 17.8404,9.8595 C19.3574,12.2535 20.4424,15.2465 20.6554,18.0775 C20.7494,19.3295 20.7164,20.8965 19.9384,21.9615 C19.2954,22.8405 18.3254,22.9195 17.3464,22.5725 C16.1754,22.1585 14.9144,21.3075 13.7204,20.1835 C10.7344,17.3715 5.6314,9.8785 10.3174,6.3375 C10.8144,5.9625 11.5804,5.5005 12.2664,5.5185 Z" id="Combined-Shape" fill="#000100"></path>
            <path d="M26.4128,54.9383 C30.2528,52.9983 33.4288,48.5173 36.5008,45.4853 C38.3508,43.6613 40.5288,42.1703 41.9208,39.9883 C38.2328,37.3753 33.4248,34.1223 28.7718,33.7133 C28.5748,35.5683 30.3188,39.1003 31.2618,40.6953 C28.9748,39.9403 24.9358,39.2943 22.4788,39.4803 C22.0658,41.4783 25.4278,44.4443 26.0348,46.4383 C23.2758,46.5913 20.3248,46.3923 17.6208,46.8663 C16.6528,48.6883 21.1678,51.5843 22.2518,52.6873 C23.1678,53.6203 24.8098,56.2263 26.4128,54.9383" id="Fill-13" fill="#FFE24F"></path>
            <path d="M83.6355,26.8885 C79.1415,26.9855 74.4395,24.6055 72.1955,20.6405 C68.6265,14.3355 71.3155,8.9735 76.0935,6.4905 C79.2815,4.8325 83.4035,4.4585 87.2165,5.9415 C97.6725,10.0085 95.1725,26.6395 83.6355,26.8885 M82.4005,0.0105 C79.6735,0.1075 77.1905,0.5505 74.9835,1.4585 C71.8045,2.7665 69.1975,5.0405 67.2655,8.6405 C64.2715,14.2175 64.9485,21.1555 68.8475,26.1165 C73.6975,32.2905 82.9775,34.6315 90.3565,32.1255 C108.2375,26.0515 99.9775,-0.6145 82.4005,0.0105" id="Fill-15" fill="#FFA1C7"></path>
        </g>
    </g>
</svg>
