
<svg width="117px" height="154px" viewBox="0 0 117 154" version="1.1" xmlns="http://www.w3.org/2000/svg" xmlns:xlink="http://www.w3.org/1999/xlink">
    <g id="Page-1" stroke="none" stroke-width="1" fill="none" fill-rule="evenodd">
        <g id="TARIFS" transform="translate(-1302.000000, -479.000000)">
            <g id="1-2-3" transform="translate(370.000000, 427.000000)">
                <g id="1" transform="translate(800.000000, 0.000000)">
                    <g id="Group-9" transform="translate(132.000000, 52.000000)">
                        <path d="M26.9667,116.889 C26.5757,116.645 26.1857,116.401 25.7987,116.156 C24.4767,115.318 19.7557,113.076 20.1557,111.131 C20.3977,109.962 26.5767,106.96 27.8147,106.277 C28.3597,105.977 28.9117,105.695 29.4647,105.411 C28.2907,109.152 27.4437,113 26.9667,116.889 M105.7937,47.31 C100.0157,48.48 92.9937,52.117 90.9267,58.02 C88.1997,65.812 94.3017,73.708 94.7617,81.151 C95.2287,88.699 86.1987,86.172 82.3937,83.697 C77.5487,80.547 72.1677,78.068 66.7107,75.807 C66.4117,73.098 67.4467,70.896 68.1407,67.408 C70.2197,56.961 72.6237,40.143 62.7207,32.465 C58.4627,29.163 51.7497,30.451 50.3797,30.909 C44.2187,30.562 36.1777,37.663 33.1727,42.678 C29.7377,48.408 29.8887,55.958 33.4117,61.588 C36.6987,66.841 41.1447,69.932 39.5107,76.681 C38.2607,81.844 33.1577,84.175 29.1677,86.745 C20.4117,92.385 9.3007,97.789 1.8277,104.942 C-2.7413,109.315 2.2797,114.939 5.7467,118.055 C8.0427,120.118 10.5937,121.908 13.1917,123.567 C14.2367,124.234 19.1127,128.187 19.9447,128.057 C17.1207,128.499 10.3997,129.094 8.3367,131.285 C4.9877,134.845 9.9547,139.726 13.3397,140.639 C18.0427,141.907 23.4037,140.167 28.0357,139.105 C26.7467,139.4 29.8507,148.023 30.6807,148.954 C32.9787,151.535 36.6487,152.569 39.9217,153.166 C46.9697,154.452 54.3427,153.689 61.4007,152.87 C70.3117,151.838 84.2067,152.111 89.9067,144.197 C96.1017,135.595 90.0297,122.117 86.9977,113.131 C85.9197,109.932 84.7097,106.784 83.3767,103.731 C87.9437,105.332 92.6777,106.364 97.2327,106.045 C104.2137,105.557 111.4897,96.838 110.2107,89.76 C109.4147,85.353 108.1127,81.068 106.9787,76.771 C106.1247,73.532 104.1147,68.532 104.8517,65.138 C106.1017,59.37 114.8877,57.642 116.0577,52.2 C117.2907,46.463 109.4397,46.573 105.7937,47.31" id="Fill-3" fill="#000100"></path>
                        <path d="M43.0614,54.6483 C50.7474,51.8463 58.7184,48.6083 66.5264,46.5053 C66.6404,53.6903 64.3924,60.7093 56.1884,61.5243 C53.4004,61.8013 44.5764,60.8003 43.0614,54.6483" id="Fill-5" fill="#FFFFFF"></path>
                        <path d="M29.6991,54.1058 C36.9491,50.4428 42.9471,41.9808 48.7501,36.2548 C52.2431,32.8088 56.3561,29.9948 58.9861,25.8738 C52.0221,20.9378 42.9401,14.7948 34.1541,14.0228 C33.7821,17.5258 37.0761,24.1948 38.8541,27.2078 C34.5361,25.7818 26.9101,24.5628 22.2691,24.9128 C21.4891,28.6868 27.8371,34.2888 28.9851,38.0538 C23.7751,38.3438 18.2021,37.9658 13.0951,38.8628 C11.2661,42.3038 19.7931,47.7718 21.8401,49.8548 C23.5701,51.6168 26.6731,56.5378 29.6991,54.1058" id="Fill-7" fill="#FFE24F"></path>
                        <path d="M92.3007,48.889 C87.8067,48.986 83.1047,46.606 80.8607,42.641 C77.2927,36.336 79.9807,30.973 84.7587,28.491 C87.9467,26.833 92.0687,26.458 95.8817,27.942 C106.3377,32.009 103.8377,48.64 92.3007,48.889 M91.0657,22.011 C88.3387,22.108 85.8557,22.55 83.6487,23.459 C80.4697,24.766 77.8637,27.041 75.9307,30.641 C72.9367,36.218 73.6137,43.156 77.5127,48.117 C82.3627,54.29 91.6437,56.632 99.0217,54.126 C116.9037,48.052 108.6437,21.386 91.0657,22.011" id="Fill-1" fill="#00F6E5"></path>
                        <path d="M85.0042837,13.6544376 C85.9381752,12.8080184 87.2969549,12.8771866 88.3997951,13.3285626 C90.9009563,14.3503982 92.3488835,16.6300968 93.6825006,18.8420533 C94.4014317,20.0350266 96.28575,23.8036244 93.6120454,23.9933022 C92.1238581,24.0988372 90.3588823,22.9350999 89.245977,22.06301 C87.6830209,20.8379483 83.9431415,18.1596412 84.0006559,15.6382104 C84.0157535,14.9550852 84.3112342,14.2826561 85.0042837,13.6544376 Z M113.790211,8.0011702 L114.031759,8.01589482 C117.185666,8.32034016 115.869213,12.1361036 114.740502,13.6787237 C113.768619,15.0057558 110.411137,17.9751903 108.562373,16.6802051 C107.661364,16.0494643 108.051927,14.7581208 108.309789,13.8549815 C108.813449,12.0865766 110.094464,9.46091765 112.022397,8.4339609 C112.629352,8.11057878 113.300396,7.94597436 114.031759,8.01589482 Z M100.686142,0.700181518 C102.103479,1.79659679 102.59043,3.83742112 102.743767,5.55100982 C102.924733,7.56368484 103.241078,9.32442362 102.691964,11.3525808 C102.461267,12.2048009 102.074469,13.2350653 101.320214,13.7551236 C100.697884,14.1851042 100.048617,14.0070599 99.4925953,13.5447076 C98.8281322,12.9915738 98.2064932,12.1287977 97.692605,11.1006445 C96.6441072,9.00422532 95.9416552,6.43349041 96.0038191,4.07317151 C96.0687458,1.58406957 98.0061873,-1.37442197 100.686142,0.700181518 Z" id="Combined-Shape" fill="#000100" transform="translate(100.000000, 12.000000) scale(-1, 1) translate(-100.000000, -12.000000) "></path>
                    </g>
                </g>
            </g>
        </g>
    </g>
</svg>
