
<svg width="142px" height="146px" viewBox="0 0 142 146" version="1.1" xmlns="http://www.w3.org/2000/svg" xmlns:xlink="http://www.w3.org/1999/xlink">
    <g id="Page-1" stroke="none" stroke-width="1" fill="none" fill-rule="evenodd">
        <g id="TARIFS" transform="translate(-889.000000, -489.000000)">
            <g id="1-2-3" transform="translate(370.000000, 427.000000)">
                <g id="1-copy" transform="translate(400.000000, 0.000000)">
                    <g id="illustr-LE-PACK" transform="translate(119.000000, 62.000000)">
                        <g id="Group-18" transform="translate(0.000000, 32.379400)">
                            <polygon id="Fill-1" fill="#00F6E5" points="2.20268248e-13 13.417 13.554 90.282 89.645 76.865 76.091 7.81597009e-14"></polygon>
                            <path d="M61.537,69.1313 C61.054,68.4593 60.523,67.8453 59.984,67.2413 C60.607,65.4583 60.85,63.4293 61.315,61.7443 C62.349,57.9943 63.08,54.2993 63.23,50.3983 C63.43,45.1913 63.187,38.6613 61.526,32.9463 C61.373,31.8093 61.167,30.6823 61.039,29.6123 C60.769,27.3563 61.527,24.6243 60.845,22.4813 C59.863,19.4013 58.067,21.5363 57.097,24.3503 C57.068,24.3183 57.045,24.2823 57.016,24.2513 C56.815,24.0283 56.593,23.8163 56.359,23.6203 C55.703,21.5983 54.621,20.0483 53.121,20.7343 C51.889,21.2973 51.582,23.6583 51.77,26.0443 C51.178,25.1303 50.601,24.3283 50.287,23.8393 C49.254,22.2333 48.702,20.3343 47.688,22.8203 C46.586,25.5273 49.616,29.8673 50.462,32.3023 C51.887,36.4063 53.745,40.0213 53.867,44.4683 C53.997,49.2193 51.697,65.9363 43.894,58.1533 C38.995,53.2673 39.495,47.8443 40.246,41.6473 C40.716,37.7623 40.596,33.0973 39.478,29.3483 C38.552,26.2323 36.468,23.2863 33.421,22.1523 C29.943,20.8593 27.058,21.2613 24.845,22.6823 C20.096,25.7303 18.432,33.4623 20.625,39.1913 C22.269,43.4853 26.595,44.8293 29.011,48.4893 C32.467,53.7253 29.498,59.3603 28.033,64.6253 C27.359,67.0493 26.26,69.3623 26.067,71.8883 C25.878,74.3823 26.13,77.0003 26.716,79.3693 C29.228,79.1233 31.72,79.0613 34.24,78.8753 C36.879,78.6803 39.432,78.1083 41.992,77.6543 C46.969,76.7743 51.874,75.6723 56.734,74.5083 C59.033,73.9583 61.544,72.8913 63.847,72.5913 C63.064,71.5133 62.357,70.2693 61.537,69.1313" id="Fill-2" fill="#000100"></path>
                            <path d="M27.0038,38.0669 C27.7888,37.3279 42.3048,28.7649 44.0248,27.7559 C46.7608,34.7029 45.1268,38.9529 38.6708,41.8869 C34.6438,43.7179 30.1698,42.6669 27.0038,38.0669" id="Fill-4" fill="#FFFFFF"></path>
                            <path d="M20.455,35.6762 C24.294,33.7362 27.471,29.2562 30.543,26.2232 C32.393,24.3992 34.57,22.9092 35.963,20.7262 C32.275,18.1132 27.467,14.8612 22.813,14.4512 C22.617,16.3062 24.361,19.8382 25.303,21.4332 C23.017,20.6782 18.978,20.0322 16.52,20.2182 C16.107,22.2162 19.469,25.1822 20.077,27.1762 C17.318,27.3302 14.367,27.1302 11.663,27.6042 C10.695,29.4262 15.21,32.3222 16.293,33.4252 C17.21,34.3582 18.852,36.9642 20.455,35.6762" id="Fill-6" fill="#FFE24F"></path>
                        </g>
                        <g id="Group-17" transform="translate(51.765400, 44.810700)">
                            <polygon id="Fill-8" fill="#000100" points="76.091 90.282 2.13162821e-13 76.865 13.553 7.81597009e-14 89.645 13.417"></polygon>
                            <path d="M58.8146,66.9105 C59.0896,66.2955 59.3116,65.6415 59.4736,64.9515 C62.4516,52.2225 55.3176,40.6895 53.8496,28.2915 C53.4136,24.6065 53.2676,19.3355 50.3516,16.6455 C48.0396,14.5125 44.6076,13.7815 41.5746,13.5735 C37.6076,13.3025 34.2766,15.5025 34.5926,19.8115 C34.8656,23.5265 38.3326,27.2105 40.5416,29.9375 C42.7196,32.6255 46.8316,36.4805 45.2926,40.1555 C43.6316,44.1205 39.1356,44.9015 35.6156,46.4305 C28.1326,49.6805 14.8746,57.9395 21.0626,67.9695 C25.5036,75.1655 38.9946,76.3515 46.4046,75.0645 C51.4206,74.1935 56.6936,71.6605 58.8146,66.9105" id="Fill-11" fill="#00F6E5"></path>
                            <path d="M37.5334,44.7567 C36.4844,44.5877 37.6454,52.1587 37.8114,52.9847 C39.4904,61.3017 48.7504,67.1907 57.0334,66.8167 C67.0534,66.3657 72.2804,60.9807 76.7934,52.7747 C68.8914,51.7657 60.3744,50.3167 52.5644,48.4827 C47.9754,47.4047 42.2564,45.5247 37.5334,44.7567" id="Fill-13" fill="#FFFFFF"></path>
                        </g>
                        <g id="Group-16" transform="translate(31.290400, 18.099000)">
                            <polygon id="Fill-15" fill="#FFA1C7" points="83.773 77.754 6.802 84.488 5.25801624e-13 6.734 76.97 1.42108547e-13"></polygon>
                            <path d="M23.233,72.7086 C26.876,68.1656 23.586,59.7736 21.957,55.0186 C18.76,45.6876 13.356,35.9576 17.762,26.1236 C21.203,18.4436 29.177,14.1326 37.46,14.5766 C44.987,14.9786 50.034,22.6746 51.643,29.3016 C53.433,36.6726 49.603,43.7406 51.771,50.9946 C52.839,54.5686 53.755,58.0946 55.234,61.5336 C56.077,63.4926 57.925,66.2966 58.159,68.3566 C52.273,68.7856 46.147,70.3396 40.137,70.8676 C36.589,71.1796 33.001,71.1126 29.465,71.6106 C27.835,71.8406 25.361,71.7506 23.233,72.7086" id="Fill-17" fill="#00F6E5"></path>
                            <path d="M21.6715,32.0753 C23.1665,31.8863 54.8255,25.4383 61.3405,23.9113 C62.2175,30.5273 62.1215,39.3903 55.7255,43.8603 C51.4225,46.8673 41.4205,50.0363 36.1385,47.7083 C29.2015,44.6513 24.7595,39.1963 21.6715,32.0753" id="Fill-19" fill="#FFFFFF"></path>
                        </g>
                        <path d="M34.2455,18.5158 C35.5445,17.3288 37.4345,17.4258 38.9685,18.0588 C42.4475,19.4918 44.4615,22.6888 46.3165,25.7908 C47.3165,27.4638 49.9375,32.7488 46.2185,33.0148 C44.1485,33.1628 41.6935,31.5308 40.1455,30.3078 C37.9715,28.5898 32.7695,24.8338 32.8495,21.2978 C32.8705,20.3398 33.2815,19.3968 34.2455,18.5158 Z M71.7831,11.6992 C72.5881,11.2552 73.4781,11.0292 74.4481,11.1252 C78.6311,11.5432 76.8851,16.7822 75.3881,18.9002 C74.0991,20.7222 69.6461,24.7992 67.1941,23.0212 C65.9991,22.1552 66.5171,20.3822 66.8591,19.1422 C67.5271,16.7142 69.2261,13.1092 71.7831,11.6992 Z M56.4834,0.9949 C58.5354,2.5529 59.2404,5.4529 59.4624,7.8879 C59.7244,10.7479 60.1824,13.2499 59.3874,16.1319 C59.0534,17.3429 58.4934,18.8069 57.4014,19.5459 C56.5004,20.1569 55.5604,19.9039 54.7554,19.2469 C53.7934,18.4609 52.8934,17.2349 52.1494,15.7739 C50.6314,12.7949 49.6144,9.1419 49.7044,5.7879 C49.7984,2.2509 52.6034,-1.9531 56.4834,0.9949 Z" id="Combined-Shape" fill="#000100"></path>
                        <path d="M51.9355,85.2544 C51.3185,86.4874 53.4785,92.8944 54.5795,93.3464 C56.0035,93.9334 58.4295,93.1574 59.9175,92.9954 C62.4135,92.7244 64.9085,92.4594 67.4035,92.1914 C73.1645,91.5724 78.9445,91.0674 84.6495,90.1034 C87.0285,89.7014 89.5715,89.9584 91.8935,89.2384 C94.1455,88.5404 92.8265,85.5704 92.0965,83.9684 C91.7285,83.1594 91.3075,82.4094 90.7015,81.7754 C90.3465,81.4064 89.7685,80.5774 89.3085,80.3804 C88.8505,80.1844 87.7395,80.4144 87.2915,80.4724 C84.1165,80.8844 80.8725,81.0654 77.6705,81.3424 C73.6775,81.6884 69.7035,82.7404 65.7175,82.9194 C63.7265,83.0094 61.9605,83.4114 59.9775,83.7244 C57.6155,84.0984 54.1995,83.9164 52.0845,85.0874 C52.0245,85.1204 51.9745,85.1774 51.9355,85.2544" id="Fill-28" fill="#000100"></path>
                        <path d="M43.6454,139.7158 C39.1514,139.8128 34.4494,137.4328 32.2054,133.4688 C28.6374,127.1628 31.3254,121.8008 36.1034,119.3178 C39.2914,117.6608 43.4134,117.2858 47.2264,118.7688 C57.6824,122.8358 55.1824,139.4668 43.6454,139.7158 M42.4104,112.8378 C39.6834,112.9348 37.2004,113.3778 34.9934,114.2858 C31.8144,115.5938 29.2084,117.8678 27.2754,121.4678 C24.2814,127.0448 24.9584,133.9828 28.8574,138.9448 C33.7074,145.1178 42.9884,147.4598 50.3664,144.9528 C68.2484,138.8788 59.9884,112.2128 42.4104,112.8378" id="Fill-30" fill="#FFA1C7"></path>
                    </g>
                </g>
            </g>
        </g>
    </g>
</svg>
