<?xml version="1.0" encoding="utf-8"?>
<!-- Generator: Adobe Illustrator 22.1.0, SVG Export Plug-In . SVG Version: 6.00 Build 0)  -->
<svg version="1.1" id="Calque_1" xmlns="http://www.w3.org/2000/svg" xmlns:xlink="http://www.w3.org/1999/xlink" x="0px" y="0px"
	 viewBox="0 0 1000 1000" style="enable-background:new 0 0 1000 1000;" xml:space="preserve">
<style type="text/css">
	.st0{fill:#9B993A;}
	.st1{fill:#FFFFFF;}
</style>
<circle class="st0" cx="474.4" cy="478.1" r="476.2"/>
<g>
	<path class="st1" d="M391.3,423.5c0,11.7,0,75.4,0,82.8c22.2,0.6,61.5,0.6,83.5,3.2c18,2.1,34.1,10.3,45.5,25.3
		c28.3,37.1,11.7,90.7-33.5,106.9c-38.6,13.8-76.4,8.7-113-8.1c-9.4-4.3-18.1-10-27.7-15.4c-12.3,25-24.7,50-36.8,74.6
		c0.7,1,0.8,1.5,1.1,1.7c1.4,0.9,2.9,1.7,4.4,2.6c33,18.4,68.1,29.8,106,32.7c38.5,2.9,76.2,0.3,112.7-13.2
		c65.6-24.3,114.1-82.6,104.8-158.8c-3.9-32.2-17.3-59.1-43.6-78.9c-14.3-10.8-30.5-17.3-49.1-21.5c3.3-1.4,5.2-2.2,7.1-3.1
		c63.4-27,82.2-88.3,65.1-140.6c-12-36.5-38.6-59.6-73.1-74.1c-33.3-13.9-68.1-16.1-103.7-13.1c-41.2,3.5-79,16.7-113.9,38.5
		c-2.1,1.3-4.1,2.8-6.5,4.4c11.5,24.3,22.7,48.2,34.1,72.4c1.8-1.2,2.9-1.7,3.9-2.5c22.2-18.7,47.5-30.2,76.6-32.4
		c19.1-1.5,37.8,0.3,55,9.3c35.9,18.8,39.1,69.3,6.1,92.8c-12.3,8.7-26.2,13.1-41.1,13.7c-18.2,0.7-36.5,0.5-54.7,0.6H391.3z"/>
	<path class="st1" d="M455.3,422.9c14.8-0.6,28.8-5,41.1-13.7c33-23.4,29.7-74-6.1-92.8c-17.3-9-35.9-10.8-55-9.3
		c-29.1,2.2-54.4,13.7-76.6,32.4c-0.9,0.8-2.1,1.3-3.9,2.5c-11.4-24.2-22.7-48.1-34.1-72.4c2.4-1.6,4.4-3.1,6.5-4.4
		c34.9-21.8,72.7-35,113.9-38.5c35.5-3,70.4-0.9,103.7,13.1c34.6,14.5,61.2,37.6,73.1,74.1c17.1,52.3-1.7,113.6-65.1,140.6
		c-1.9,0.8-3.9,1.7-7.1,3.1c18.6,4.2,34.8,10.7,49.1,21.5c26.3,19.8,39.7,46.8,43.6,78.9c9.3,76.1-39.2,134.5-104.8,158.8
		c-36.5,13.5-74.2,16.1-112.7,13.2c-37.9-2.8-73-14.2-106-32.7c-1.5-0.8-3-1.7-4.4-2.6c-0.3-0.2-0.5-0.7-1.1-1.7
		c12.2-24.6,24.5-49.6,36.8-74.6c9.6,5.4,18.4,11.1,27.7,15.4c36.6,16.8,74.4,21.9,113,8.1c45.2-16.1,61.7-69.8,33.5-106.9
		c-11.4-15-27.5-23.3-45.5-25.3"/>
</g>
</svg>
