<svg xmlns="http://www.w3.org/2000/svg" width="1000" height="1000">
<path fill="#fff" stroke="#009" stroke-width="70" stroke-miterlimit="10" d="M500 35c256.81 0 465 208.19 465 465S756.81 965 500 965 35 756.81 35 500 243.19 35 500 35z"/>
<path fill="#009" d="M748.71 723.71V287.5c0-24.987-13.69-51.235-54.958-51.235-31.203 0-43.75 13.75-57.48 41.277l-135.03 281.22h-1.23l-136.27-281.22c-13.76-27.528-26.24-41.277-57.52-41.277-41.24 0-55 26.248-55 51.235v436.22c0 23.815 18.772 37.507 41.25 37.507 19.983 0 42.49-13.688 42.49-37.507V398.75h1.27l123.73 252.49c8.756 17.512 20.033 27.54 40.036 27.54 19.966 0 31.232-10.028 39.998-27.54l123.73-252.49H665v324.96c0 23.815 22.455 37.507 42.474 37.507 22.54 0 41.23-13.688 41.23-37.51l.005.003z"/></svg>
